<svg id="Layer_1" data-name="Layer 1" xmlns="http://www.w3.org/2000/svg" viewBox="0 0 205 51"><defs><style>.cls-1{fill:#70ad47;}.cls-2{fill:#0f1d59;}</style></defs><title>Ecolabs Logo</title><path class="cls-1" d="M0,31.84V1H20.4V3.28H2.86V15h16.6v2.36H2.86V29.52H20.4v2.32Z"/><path class="cls-1" d="M32.69,30.29a12.89,12.89,0,0,1-5.21-5.48,18.26,18.26,0,0,1-1.83-8.43A18.26,18.26,0,0,1,27.48,8a12.79,12.79,0,0,1,5.21-5.46,16.17,16.17,0,0,1,8-1.88,18.9,18.9,0,0,1,6.29,1,13.79,13.79,0,0,1,5,3L50.7,6.79A15.71,15.71,0,0,0,46,3.89,15.23,15.23,0,0,0,40.71,3Q35,3,31.82,6.52t-3.16,9.86q0,6.39,3.14,9.9t8.91,3.5A15.23,15.23,0,0,0,46,28.91,15.87,15.87,0,0,0,50.7,26l1.22,2.14a13.65,13.65,0,0,1-5,3,18.65,18.65,0,0,1-6.29,1A16,16,0,0,1,32.69,30.29Z"/><path class="cls-1" d="M63.83,30.29a12.67,12.67,0,0,1-5.11-5.48,18.53,18.53,0,0,1-1.78-8.39A18.64,18.64,0,0,1,58.72,8a12.66,12.66,0,0,1,5.09-5.47A15.35,15.35,0,0,1,71.66.61a15.49,15.49,0,0,1,7.88,1.91A12.67,12.67,0,0,1,84.66,8a18.63,18.63,0,0,1,1.78,8.41,18.77,18.77,0,0,1-1.78,8.43,12.69,12.69,0,0,1-5.12,5.48,15.59,15.59,0,0,1-7.88,1.9A15.5,15.5,0,0,1,63.83,30.29Zm16.51-4q3.09-3.51,3.1-9.9T80.36,6.5Q77.3,3,71.66,3T63,6.52Q59.94,10,59.94,16.38T63,26.26q3.08,3.52,8.65,3.52T80.34,26.28Z"/><path class="cls-1" d="M93.71,31.84V1h2.9V29.48h17.08v2.36Z"/><path class="cls-1" d="M143.14,31.84l-3.8-8.23H121.52l-3.8,8.23h-3L129.12,1h2.62l14.35,30.88ZM122.6,21.24h15.66L130.43,4.16Z"/><path class="cls-1" d="M174.12,18.63a7.53,7.53,0,0,1,1.57,4.85,7.35,7.35,0,0,1-2.84,6.22q-2.83,2.14-8,2.14H151.58V1h12.76q5.06,0,7.83,2.1a7.1,7.1,0,0,1,2.77,6,6.8,6.8,0,0,1-1.39,4.3A8.22,8.22,0,0,1,169.68,16,7.76,7.76,0,0,1,174.12,18.63ZM154.44,15h9.48A10,10,0,0,0,170,13.44,5.17,5.17,0,0,0,172,9q0-5.74-8.11-5.74h-9.48Zm16.35,13.07a5.23,5.23,0,0,0,2-4.49q0-6.21-8.16-6.22H154.44V29.52h10.18Q168.79,29.52,170.79,28.05Z"/><path class="cls-1" d="M186.38,31.21A15.23,15.23,0,0,1,181,28.16L182.25,26a16.11,16.11,0,0,0,5,2.91,18.77,18.77,0,0,0,6,.85,11.3,11.3,0,0,0,6.49-1.6,5.13,5.13,0,0,0,2.32-4.49A3.68,3.68,0,0,0,201,20.91a7.71,7.71,0,0,0-2.86-1.66A40.67,40.67,0,0,0,193.46,18a47.47,47.47,0,0,1-6.21-1.62,10.08,10.08,0,0,1-4-2.52,6.18,6.18,0,0,1-1.64-4.53,7.55,7.55,0,0,1,1.45-4.6,9.49,9.49,0,0,1,4.1-3.07A16.42,16.42,0,0,1,193.37.61a18.39,18.39,0,0,1,6.26,1,14.28,14.28,0,0,1,5,3l-1.21,2.15a16.42,16.42,0,0,0-4.74-2.87,15,15,0,0,0-5.3-.9,11.11,11.11,0,0,0-6.52,1.66,5.39,5.39,0,0,0-2.35,4.65,4.18,4.18,0,0,0,2,3.83,20.21,20.21,0,0,0,6,2.12l1.22.27q3.81.87,6,1.62a9.22,9.22,0,0,1,3.73,2.3A5.73,5.73,0,0,1,205,23.65a7.29,7.29,0,0,1-1.45,4.47,9.49,9.49,0,0,1-4.11,3,16.22,16.22,0,0,1-6.16,1.07A22.31,22.31,0,0,1,186.38,31.21Z"/><path class="cls-2" d="M1.77,49.9A3.23,3.23,0,0,1,.46,48.5a5,5,0,0,1,0-4.21A3.26,3.26,0,0,1,1.77,42.9a3.94,3.94,0,0,1,2-.49,4.55,4.55,0,0,1,1.48.24,3.24,3.24,0,0,1,1.17.69l-.48,1a3.81,3.81,0,0,0-1-.61,3.07,3.07,0,0,0-1.1-.19,2.14,2.14,0,0,0-1.74.73,3.14,3.14,0,0,0-.61,2.09,3.18,3.18,0,0,0,.61,2.11,2.14,2.14,0,0,0,1.74.73A3.07,3.07,0,0,0,4.9,49a3.81,3.81,0,0,0,1-.61l.48,1a3.24,3.24,0,0,1-1.17.69,4.55,4.55,0,0,1-1.48.24A3.94,3.94,0,0,1,1.77,49.9Z"/><path class="cls-2" d="M7.73,50.29V42.51h5.21v1.12H9.12v2.15h3.6v1.11H9.12v2.27h3.82v1.13Z"/><path class="cls-2" d="M19.46,42.51H20.8v7.78H19.73l-4.17-5.43v5.43H14.23V42.51h1.06l4.17,5.42Z"/><path class="cls-2" d="M24.31,50.29V43.68H21.77V42.51h6.5v1.17H25.73v6.61Z"/><path class="cls-2" d="M35.77,50.29H34.22l-1.33-2.48a1.15,1.15,0,0,0-.47-.5,1.41,1.41,0,0,0-.69-.14H30.65v3.12H29.24V42.51h3.45a3,3,0,0,1,2,.59,2.11,2.11,0,0,1,.69,1.7,2.16,2.16,0,0,1-.5,1.48,2.39,2.39,0,0,1-1.42.75,1.61,1.61,0,0,1,1,.88Zm-2.1-4.52a1.34,1.34,0,0,0,0-1.87,2,2,0,0,0-1.18-.29H30.64v2.46h1.85A1.88,1.88,0,0,0,33.67,45.77Z"/><path class="cls-2" d="M36.92,50.29V42.51h5.21v1.12H38.31v2.15h3.6v1.11h-3.6v2.27h3.82v1.13Z"/><path class="cls-2" d="M47.91,49.9a3.16,3.16,0,0,1-1.29-1.39,5.2,5.2,0,0,1,0-4.23,3.19,3.19,0,0,1,1.28-1.39,4.3,4.3,0,0,1,4,0,3.31,3.31,0,0,1,1.28,1.39,4.65,4.65,0,0,1,.45,2.11,4.57,4.57,0,0,1-.46,2.12,3.2,3.2,0,0,1-1.28,1.39,4.19,4.19,0,0,1-3.93,0Zm3.64-1.39a4,4,0,0,0,0-4.23,2,2,0,0,0-1.67-.73,2.08,2.08,0,0,0-1.69.73,4,4,0,0,0,0,4.23,2.06,2.06,0,0,0,1.69.74A2,2,0,0,0,51.55,48.51Z"/><path class="cls-2" d="M55,50.29V42.51h5.1v1.13h-3.7v2.12h3.48V46.9H56.41v3.39Z"/><path class="cls-2" d="M64.25,50.29V42.51h1.43v7.78Z"/><path class="cls-2" d="M72.59,42.51h1.33v7.78H72.85l-4.17-5.43v5.43H67.35V42.51h1.06l4.18,5.42Z"/><path class="cls-2" d="M80.83,42.51h1.34v7.78H81.1l-4.17-5.43v5.43H75.6V42.51h1.06l4.17,5.42Z"/><path class="cls-2" d="M85.34,49.9a3.2,3.2,0,0,1-1.28-1.39,5.25,5.25,0,0,1,0-4.23,3.27,3.27,0,0,1,1.29-1.39,4.3,4.3,0,0,1,4,0,3.31,3.31,0,0,1,1.28,1.39A4.79,4.79,0,0,1,91,46.39a4.7,4.7,0,0,1-.45,2.12,3.16,3.16,0,0,1-1.29,1.39,3.73,3.73,0,0,1-2,.49A3.82,3.82,0,0,1,85.34,49.9ZM89,48.51a4,4,0,0,0,0-4.23,2.3,2.3,0,0,0-3.36,0,4,4,0,0,0,0,4.23,2.28,2.28,0,0,0,3.36,0Z"/><path class="cls-2" d="M98,42.51H99.4l-3.46,7.78H94.78l-3.47-7.78h1.47l2.58,6Z"/><path class="cls-2" d="M105.34,50.29l-.78-1.82h-3.79L100,50.29H98.55l3.53-7.78h1.15l3.53,7.78Zm-4.1-2.92h2.84l-1.42-3.32Z"/><path class="cls-2" d="M108.46,50.29V43.68h-2.54V42.51h6.5v1.17h-2.54v6.61Z"/><path class="cls-2" d="M113.39,50.29V42.51h1.42v7.78Z"/><path class="cls-2" d="M118,49.9a3.16,3.16,0,0,1-1.29-1.39,5.2,5.2,0,0,1,0-4.23A3.25,3.25,0,0,1,118,42.89a4.3,4.3,0,0,1,4,0,3.25,3.25,0,0,1,1.28,1.39,5.2,5.2,0,0,1,0,4.23,3.28,3.28,0,0,1-1.29,1.39,4.19,4.19,0,0,1-3.93,0Zm3.64-1.39a4,4,0,0,0,0-4.23,2.29,2.29,0,0,0-3.35,0,4,4,0,0,0,0,4.23,2.27,2.27,0,0,0,3.35,0Z"/><path class="cls-2" d="M130.33,42.51h1.33v7.78h-1.07l-4.17-5.43v5.43h-1.33V42.51h1.06l4.18,5.42Z"/><path class="cls-2" d="M136.33,50.29V42.51h5.1v1.13h-3.7v2.12h3.48V46.9h-3.48v3.39Z"/><path class="cls-2" d="M144,49.9a3.16,3.16,0,0,1-1.29-1.39,4.7,4.7,0,0,1-.45-2.12,4.79,4.79,0,0,1,.44-2.11A3.27,3.27,0,0,1,144,42.89a4.3,4.3,0,0,1,3.95,0,3.31,3.31,0,0,1,1.28,1.39,5.25,5.25,0,0,1,0,4.23,3.2,3.2,0,0,1-1.28,1.39,4.19,4.19,0,0,1-3.93,0Zm3.64-1.39a4,4,0,0,0,0-4.23,2,2,0,0,0-1.67-.73,2.06,2.06,0,0,0-1.69.73,4,4,0,0,0,0,4.23,2,2,0,0,0,1.69.74A2,2,0,0,0,147.61,48.51Z"/><path class="cls-2" d="M157.59,50.29h-1.54l-1.34-2.48a1.13,1.13,0,0,0-.46-.5,1.46,1.46,0,0,0-.7-.14h-1.08v3.12h-1.4V42.51h3.44a3,3,0,0,1,2,.59,2.11,2.11,0,0,1,.69,1.7,2.21,2.21,0,0,1-.5,1.48,2.42,2.42,0,0,1-1.42.75,1.62,1.62,0,0,1,1,.88Zm-2.09-4.52a1.37,1.37,0,0,0,0-1.87,2,2,0,0,0-1.18-.29h-1.86v2.46h1.86A1.9,1.9,0,0,0,155.5,45.77Z"/><path class="cls-2" d="M161.73,50.29V42.51H167v1.12h-3.82v2.15h3.59v1.11h-3.59v2.27H167v1.13Z"/><path class="cls-2" d="M173.47,42.51h1.34v7.78h-1.07l-4.18-5.43v5.43h-1.32V42.51h1.06l4.17,5.42Z"/><path class="cls-2" d="M176.48,50.29V42.51h5.21v1.12h-3.81v2.15h3.59v1.11h-3.59v2.27h3.81v1.13Z"/><path class="cls-2" d="M189.51,50.29H188l-1.34-2.48a1.19,1.19,0,0,0-.46-.5,1.48,1.48,0,0,0-.7-.14h-1.08v3.12H183V42.51h3.44a3,3,0,0,1,2,.59,2.11,2.11,0,0,1,.69,1.7,2.16,2.16,0,0,1-.51,1.48,2.36,2.36,0,0,1-1.42.75,1.61,1.61,0,0,1,1,.88Zm-2.1-4.52a1.34,1.34,0,0,0,0-1.87,2,2,0,0,0-1.18-.29h-1.85v2.46h1.85A1.88,1.88,0,0,0,187.41,45.77Z"/><path class="cls-2" d="M197.1,46.08v3.74a6.11,6.11,0,0,1-1.29.42,7.88,7.88,0,0,1-1.54.15,4.33,4.33,0,0,1-2.09-.48,3.21,3.21,0,0,1-1.35-1.38,5.06,5.06,0,0,1,0-4.26,3.25,3.25,0,0,1,1.34-1.38,4.09,4.09,0,0,1,2-.48,4.82,4.82,0,0,1,1.54.24,3.13,3.13,0,0,1,1.19.67l-.47,1a3.88,3.88,0,0,0-1.07-.6,3.51,3.51,0,0,0-1.15-.18,2.25,2.25,0,0,0-1.82.71,3.14,3.14,0,0,0-.61,2.11c0,1.92.84,2.87,2.51,2.87a5.56,5.56,0,0,0,1.51-.21V47.1h-1.68v-1Z"/><path class="cls-2" d="M205,42.51l-3.16,4.19v3.59h-1.42V46.7l-3.15-4.19h1.6l2.25,3.06,2.27-3.06Z"/></svg>