<?xml version="1.0" encoding="utf-8"?>
<!-- Generator: Adobe Illustrator 16.0.0, SVG Export Plug-In . SVG Version: 6.00 Build 0)  -->
<!DOCTYPE svg PUBLIC "-//W3C//DTD SVG 1.1//EN" "http://www.w3.org/Graphics/SVG/1.1/DTD/svg11.dtd">
<svg version="1.1" id="Layer_1" xmlns="http://www.w3.org/2000/svg" xmlns:xlink="http://www.w3.org/1999/xlink" x="0px" y="0px"
	 width="1280px" height="400px" viewBox="0 0 1280 400" enable-background="new 0 0 1280 400" xml:space="preserve">
<g>
	<g>
		<linearGradient id="SVGID_1_" gradientUnits="userSpaceOnUse" x1="201.5947" y1="131.1499" x2="1134.5361" y2="131.1499">
			<stop  offset="0" style="stop-color:#00E1FF"/>
			<stop  offset="0.5053" style="stop-color:#2B388F"/>
			<stop  offset="1" style="stop-color:#262261"/>
		</linearGradient>
		<path fill="url(#SVGID_1_)" d="M1104.795,255.04c-16.398-0.001-29.74-13.343-29.74-29.741V62.743
			c0-27.836-22.646-50.482-50.482-50.482H234.428c-15.347,0-27.833,12.485-27.833,27.833h-5c0-18.104,14.729-32.833,32.833-32.833
			h790.145c30.593,0,55.482,24.89,55.482,55.482v162.556c0,13.642,11.099,24.74,24.74,24.741c13.643,0,24.741-11.099,24.741-24.741
			v-6.909h5v6.909C1134.536,241.698,1121.194,255.04,1104.795,255.04z"/>
	</g>
	<g>
		<linearGradient id="SVGID_2_" gradientUnits="userSpaceOnUse" x1="190.313" y1="62.8823" x2="217.8765" y2="62.8823">
			<stop  offset="0" style="stop-color:#26A9E0"/>
			<stop  offset="1" style="stop-color:#00E1FF"/>
		</linearGradient>
		<rect x="190.313" y="60.387" fill="url(#SVGID_2_)" width="27.563" height="4.99"/>
		<linearGradient id="SVGID_3_" gradientUnits="userSpaceOnUse" x1="200.0571" y1="42.2373" x2="208.1323" y2="42.2373">
			<stop  offset="0" style="stop-color:#26A9E0"/>
			<stop  offset="1" style="stop-color:#00E1FF"/>
		</linearGradient>
		<rect x="200.057" y="38.857" fill="url(#SVGID_3_)" width="8.075" height="6.761"/>
		<linearGradient id="SVGID_4_" gradientUnits="userSpaceOnUse" x1="192.7344" y1="71.7837" x2="199.1948" y2="71.7837">
			<stop  offset="0" style="stop-color:#26A9E0"/>
			<stop  offset="1" style="stop-color:#00E1FF"/>
		</linearGradient>
		<path fill="url(#SVGID_4_)" d="M192.734,66.36v7.695c0,1.744,1.409,3.152,3.153,3.152h0.155c1.738,0,3.153-1.408,3.153-3.152
			V66.36H192.734z"/>
		<linearGradient id="SVGID_5_" gradientUnits="userSpaceOnUse" x1="208.9946" y1="71.7837" x2="215.4551" y2="71.7837">
			<stop  offset="0" style="stop-color:#26A9E0"/>
			<stop  offset="1" style="stop-color:#00E1FF"/>
		</linearGradient>
		<path fill="url(#SVGID_5_)" d="M208.995,66.36v7.695c0,1.744,1.409,3.152,3.153,3.152h0.155c1.738,0,3.153-1.408,3.153-3.152
			V66.36H208.995z"/>
		<linearGradient id="SVGID_6_" gradientUnits="userSpaceOnUse" x1="190.0532" y1="50.9009" x2="218.1362" y2="50.9009">
			<stop  offset="0" style="stop-color:#26A9E0"/>
			<stop  offset="1" style="stop-color:#00E1FF"/>
		</linearGradient>
		<path fill="url(#SVGID_6_)" d="M218.136,58.591v-1.339c0-7.755-6.287-14.042-14.042-14.042s-14.042,6.287-14.042,14.042v1.339
			H218.136z"/>
	</g>
	<g>
		<linearGradient id="SVGID_7_" gradientUnits="userSpaceOnUse" x1="-4.6309" y1="144.5532" x2="1591.0006" y2="144.5532">
			<stop  offset="0" style="stop-color:#2E368E"/>
			<stop  offset="1" style="stop-color:#78CFEC"/>
		</linearGradient>
		<path fill="url(#SVGID_7_)" d="M74.503,219.083H24.643c0-97.219,0.034-146.904,0.104-149.061H73.46v18.046
			c-18.012,0-27.105,0.088-27.278,0.261c-0.174,0.174-0.261,7.702-0.261,22.583c0,14.813,0.087,22.307,0.261,22.479
			c0.173,0.174,8.814,0.261,25.921,0.261v17.629c-17.039,0-25.66,0.052-25.869,0.155c-0.209,0.104-0.313,16.361-0.313,48.767
			c0,0.208,0.087,0.4,0.261,0.573c0.173,0.174,9.613,0.261,28.321,0.261V219.083z"/>
		<linearGradient id="SVGID_8_" gradientUnits="userSpaceOnUse" x1="-4.6309" y1="144.5532" x2="1590.9928" y2="144.5532">
			<stop  offset="0" style="stop-color:#2E368E"/>
			<stop  offset="1" style="stop-color:#78CFEC"/>
		</linearGradient>
		<path fill="url(#SVGID_8_)" d="M160.706,219.083h-14.708l-32.545-92.941c-0.208-0.417-0.626-0.626-1.252-0.626
			c-0.349,0.141-0.521,0.384-0.521,0.73c0.139,2.573,0.277,6.642,0.417,12.204c0.694,21.629,1.043,35.467,1.043,41.516
			c-0.07,6.886-0.104,19.924-0.104,39.117H93.53c0-96.452,0.034-144.956,0.104-145.514v-3.547h16.481l31.71,89.708
			c0.139,0.417,0.452,0.626,0.939,0.626c0.485,0,0.73-0.209,0.73-0.626c-1.183-29.138-1.773-46.87-1.773-53.199
			c0.139-14.046,0.208-26.216,0.208-36.509h18.881v145.723C160.74,216.303,160.706,217.416,160.706,219.083z"/>
		<linearGradient id="SVGID_9_" gradientUnits="userSpaceOnUse" x1="-4.6294" y1="144.5532" x2="1590.9865" y2="144.5532">
			<stop  offset="0" style="stop-color:#2E368E"/>
			<stop  offset="1" style="stop-color:#78CFEC"/>
		</linearGradient>
		<path fill="url(#SVGID_9_)" d="M229.697,219.083h-49.86c0-97.219,0.034-146.904,0.104-149.061h48.713v18.046
			c-18.011,0-27.104,0.088-27.277,0.261c-0.174,0.174-0.261,7.702-0.261,22.583c0,14.813,0.087,22.307,0.261,22.479
			c0.173,0.174,8.814,0.261,25.922,0.261v17.629c-17.039,0-25.661,0.052-25.869,0.155c-0.209,0.104-0.313,16.361-0.313,48.767
			c0,0.208,0.087,0.4,0.261,0.573c0.173,0.174,9.613,0.261,28.32,0.261V219.083z"/>
		<linearGradient id="SVGID_10_" gradientUnits="userSpaceOnUse" x1="-4.6299" y1="144.501" x2="1590.9955" y2="144.501">
			<stop  offset="0" style="stop-color:#2E368E"/>
			<stop  offset="1" style="stop-color:#78CFEC"/>
		</linearGradient>
		<path fill="url(#SVGID_10_)" d="M312.771,219.083h-20.967c-0.487-7.37-0.73-23.678-0.73-48.922v-3.442
			c0-3.198-0.244-6.38-0.73-9.544s-1.6-5.354-3.338-6.572c-1.738-1.216-3.755-1.964-6.05-2.242c-2.295-0.277-4.59-0.418-6.885-0.418
			c-1.183,0-2.294-0.034-3.337-0.104c-0.141,0-0.245,0.035-0.313,0.104c-0.07,0.07-0.14,0.104-0.209,0.104
			c-0.208,0.279-0.313,23.957-0.313,71.036h-21.174c0-95.896,0.033-145.583,0.104-149.061c22.67,0,34.805-0.034,36.404-0.104
			c2.364,0,4.99,0.192,7.876,0.573c2.885,0.383,5.789,1.479,8.71,3.287c4.59,3.128,7.44,7.858,8.554,14.186
			c1.182,6.676,1.772,14.014,1.772,22.01c0,5.494-0.591,10.988-1.772,16.48c-1.669,6.608-5.425,10.85-11.267,12.727
			c-0.416,0.278-0.625,0.592-0.625,0.938c0,0.487,0.139,0.731,0.417,0.731c4.938,0.975,8.38,4.276,10.327,9.909
			c1.877,6.189,2.885,15.056,3.025,26.6C312.388,201.908,312.563,215.816,312.771,219.083z M279.496,131.776
			c5.075,0,8.274-1.791,9.597-5.373c1.319-3.581,1.981-9.336,1.981-17.264c0-4.798-0.244-9.526-0.73-14.187
			c-0.486-3.615-1.705-6.05-3.65-7.301c-1.947-1.252-5.043-1.878-9.283-1.878c-4.521,0-6.885,0.104-7.094,0.313
			s-0.313,7.789-0.313,22.74c0,14.953,0.104,22.515,0.313,22.688C270.525,131.689,273.584,131.776,279.496,131.776z"/>
		<linearGradient id="SVGID_11_" gradientUnits="userSpaceOnUse" x1="-4.6274" y1="144.4487" x2="1590.9823" y2="144.4487">
			<stop  offset="0" style="stop-color:#2E368E"/>
			<stop  offset="1" style="stop-color:#78CFEC"/>
		</linearGradient>
		<path fill="url(#SVGID_11_)" d="M361.318,220.648c-19.611-0.209-29.416-15.401-29.416-45.584c0-23.921-0.036-42.176-0.104-54.763
			c0-4.382,0.068-8.797,0.208-13.248c0.418-14.604,4.033-25.069,10.85-31.397c5.354-4.937,12.898-7.406,22.635-7.406
			c10.082,0,17.663,2.782,22.74,8.345c5.354,6.19,8.031,17.873,8.031,35.049l-0.104,9.283h-19.715l0.104-4.485l-0.104-12.935
			c0-11.403-3.617-17.106-10.849-17.106c-5.077,0-8.415,2.122-10.015,6.363c-1.529,4.034-2.295,10.049-2.295,18.046
			c0,44.368,0.069,68.532,0.209,72.496c0,5.007,0.869,9.736,2.608,14.186c1.878,3.547,4.902,5.32,9.075,5.32
			c0.973,0,1.981-0.139,3.024-0.417c2.503-0.765,4.345-2.12,5.528-4.068c2.781-4.449,4.173-11.751,4.173-21.906
			c0-14.95-0.104-22.513-0.313-22.687c-0.208-0.173-3.963-0.261-11.266-0.261v-15.021h29.834v80.633h-8.762l-2.922-12.309
			C379.677,215.468,371.957,220.09,361.318,220.648z"/>
		<linearGradient id="SVGID_12_" gradientUnits="userSpaceOnUse" x1="-4.6333" y1="144.5532" x2="1591.001" y2="144.5532">
			<stop  offset="0" style="stop-color:#2E368E"/>
			<stop  offset="1" style="stop-color:#78CFEC"/>
		</linearGradient>
		<path fill="url(#SVGID_12_)" d="M454.092,219.083h-21.175c0-35.188,0.034-53.754,0.104-55.701c0-2.922-0.418-5.598-1.252-8.033
			c-2.713-9.038-10.64-37.482-23.783-85.326h20.028c9.874,37.344,14.898,56.067,15.073,56.172c0.172,0.104,0.607,0.156,1.303,0.156
			c0.139-0.139,4.625-18.915,13.457-56.328h20.132c-12.101,45.411-18.499,69.299-19.193,71.662
			c-3.2,11.335-4.798,18.082-4.798,20.236C454.057,163.243,454.092,182.298,454.092,219.083z"/>
	</g>
	<g>
		<linearGradient id="SVGID_13_" gradientUnits="userSpaceOnUse" x1="-4.6309" y1="316.3345" x2="1590.9913" y2="316.3345">
			<stop  offset="0" style="stop-color:#2E368E"/>
			<stop  offset="1" style="stop-color:#78CFEC"/>
		</linearGradient>
		<path fill="url(#SVGID_13_)" d="M77.136,390.783H22.87v-5.045c0-2.402,0.067-4.873,0.206-7.414
			c0.479-8.374,2.78-17.229,6.899-26.566c2.607-5.972,6.83-13.901,12.665-23.786c1.373-2.814,4.428-7.964,9.165-15.446
			c5.628-8.238,8.444-19.015,8.444-32.333c0-12.975-2.952-19.77-8.855-20.389c-5.561,0.207-8.753,4.258-9.577,12.15
			c-0.412,4.258-0.618,8.514-0.618,12.77c0,1.58,0.034,2.574,0.103,2.985v12.975H21.325l-0.103-7.311
			c0-12.769,0.788-22.722,2.368-29.862c0.96-4.461,2.78-8.547,5.458-12.253c4.873-6.246,12.288-9.371,22.242-9.371
			c10.571,0,18.259,4.531,23.066,13.593c3.774,6.865,5.663,15.996,5.663,27.391c0,11.327-2.334,21.624-7.002,30.892
			c-3.021,5.904-5.956,11.224-8.804,15.96c-2.849,4.736-4.342,7.175-4.479,7.311c-8.719,13.25-14.349,25.504-16.888,36.761
			c-0.069,0.275-0.017,0.5,0.154,0.67c0.17,0.172,11.55,0.258,34.136,0.258V390.783z"/>
		<linearGradient id="SVGID_14_" gradientUnits="userSpaceOnUse" x1="-4.6299" y1="317.313" x2="1590.9863" y2="317.313">
			<stop  offset="0" style="stop-color:#2E368E"/>
			<stop  offset="1" style="stop-color:#78CFEC"/>
		</linearGradient>
		<path fill="url(#SVGID_14_)" d="M131.34,392.74c-7.689-0.069-14.142-1.854-19.358-5.354c-8.788-6.18-13.18-18.947-13.18-38.306
			c0-1.648,0.033-3.26,0.103-4.84v-63.225c0.068-20.389,6.384-32.745,18.947-37.07c3.913-1.372,8.547-2.06,13.901-2.06
			c10.915,0,18.98,2.884,24.198,8.649c5.01,5.424,7.825,13.525,8.443,24.302c0.137,3.569,0.206,7.142,0.206,10.709v5.252v61.68
			C164.6,379.32,153.513,392.74,131.34,392.74z M132.884,374.72c3.295-0.412,5.869-1.957,7.723-4.633
			c1.991-3.433,2.986-9.166,2.986-17.197v-72.08c0-2.538-0.138-5.183-0.412-7.929c-0.755-8.855-4.633-13.283-11.635-13.283
			c-7.552,0-11.43,5.39-11.636,16.166c-0.138,2.404-0.206,4.84-0.206,7.312l0.103,65.181l-0.103,3.707
			c0,4.6,0.412,9.165,1.235,13.695c1.373,6.042,4.943,9.062,10.709,9.062H132.884z"/>
		<linearGradient id="SVGID_15_" gradientUnits="userSpaceOnUse" x1="-4.6304" y1="316.3345" x2="1590.9918" y2="316.3345">
			<stop  offset="0" style="stop-color:#2E368E"/>
			<stop  offset="1" style="stop-color:#78CFEC"/>
		</linearGradient>
		<path fill="url(#SVGID_15_)" d="M239.296,390.783H185.03v-5.045c0-2.402,0.067-4.873,0.206-7.414
			c0.479-8.374,2.779-17.229,6.898-26.566c2.608-5.972,6.83-13.901,12.666-23.786c1.373-2.814,4.428-7.964,9.165-15.446
			c5.628-8.238,8.444-19.015,8.444-32.333c0-12.975-2.953-19.77-8.855-20.389c-5.561,0.207-8.753,4.258-9.576,12.15
			c-0.412,4.258-0.618,8.514-0.618,12.77c0,1.58,0.034,2.574,0.103,2.985v12.975h-19.976l-0.103-7.311
			c0-12.769,0.788-22.722,2.368-29.862c0.96-4.461,2.78-8.547,5.457-12.253c4.874-6.246,12.288-9.371,22.242-9.371
			c10.571,0,18.259,4.531,23.066,13.593c3.773,6.865,5.663,15.996,5.663,27.391c0,11.327-2.335,21.624-7.002,30.892
			c-3.021,5.904-5.956,11.224-8.804,15.96c-2.85,4.736-4.343,7.175-4.48,7.311c-8.719,13.25-14.349,25.504-16.887,36.761
			c-0.069,0.275-0.018,0.5,0.154,0.67c0.17,0.172,11.549,0.258,34.136,0.258V390.783z"/>
		<linearGradient id="SVGID_16_" gradientUnits="userSpaceOnUse" x1="-4.6294" y1="317.1587" x2="1590.9841" y2="317.1587">
			<stop  offset="0" style="stop-color:#2E368E"/>
			<stop  offset="1" style="stop-color:#78CFEC"/>
		</linearGradient>
		<path fill="url(#SVGID_16_)" d="M300.297,390.783h-20.904c0-71.668,0.034-108.874,0.104-111.62c0-5.629-0.121-8.563-0.361-8.805
			c-0.24-0.24-0.498-0.359-0.771-0.359c-0.069,0-0.173,0.068-0.309,0.205c-3.502,3.913-8.583,6.214-15.24,6.898l-1.854,0.207v-15.24
			c10.709-2.471,18.293-8.34,22.757-17.608l0.515-0.926h16.166C300.398,338.268,300.363,387.351,300.297,390.783z"/>
	</g>
	<g>
		<linearGradient id="SVGID_17_" gradientUnits="userSpaceOnUse" x1="-4.6255" y1="143.8584" x2="1590.9849" y2="143.8584">
			<stop  offset="0" style="stop-color:#2E368E"/>
			<stop  offset="1" style="stop-color:#78CFEC"/>
		</linearGradient>
		<path fill="url(#SVGID_17_)" d="M542.588,218.389h-21.07c0-86.995,0.033-136.683,0.104-149.062h21.071
			C542.692,161.331,542.656,211.018,542.588,218.389z"/>
		<linearGradient id="SVGID_18_" gradientUnits="userSpaceOnUse" x1="-4.6348" y1="143.8584" x2="1591.0005" y2="143.8584">
			<stop  offset="0" style="stop-color:#2E368E"/>
			<stop  offset="1" style="stop-color:#78CFEC"/>
		</linearGradient>
		<path fill="url(#SVGID_18_)" d="M628.895,218.389h-14.707l-32.545-92.942c-0.209-0.417-0.627-0.625-1.252-0.625
			c-0.35,0.14-0.521,0.383-0.521,0.729c0.139,2.574,0.276,6.643,0.416,12.205c0.695,21.628,1.044,35.466,1.044,41.516
			c-0.07,6.885-0.104,19.924-0.104,39.117h-19.506c0-96.453,0.034-144.957,0.104-145.515v-3.547h16.481l31.711,89.708
			c0.139,0.417,0.485,0.626,1.043,0.626c0.417,0,0.626-0.209,0.626-0.626c-1.113-29.138-1.669-46.87-1.669-53.198
			c0.068-14.047,0.104-26.217,0.104-36.51H629V215.05C628.93,215.608,628.895,216.72,628.895,218.389z"/>
		<linearGradient id="SVGID_19_" gradientUnits="userSpaceOnUse" x1="-4.6357" y1="143.8584" x2="1590.9995" y2="143.8584">
			<stop  offset="0" style="stop-color:#2E368E"/>
			<stop  offset="1" style="stop-color:#78CFEC"/>
		</linearGradient>
		<path fill="url(#SVGID_19_)" d="M715.202,218.389h-14.708l-32.545-92.942c-0.209-0.417-0.626-0.625-1.252-0.625
			c-0.349,0.14-0.521,0.383-0.521,0.729c0.139,2.574,0.277,6.643,0.417,12.205c0.694,21.628,1.044,35.466,1.044,41.516
			c-0.07,6.885-0.104,19.924-0.104,39.117h-19.507c0-96.453,0.035-144.957,0.104-145.515v-3.547h16.481l31.711,89.708
			c0.139,0.417,0.485,0.626,1.043,0.626c0.417,0,0.625-0.209,0.625-0.626c-1.112-29.138-1.668-46.87-1.668-53.198
			c0.068-14.047,0.104-26.217,0.104-36.51h18.881V215.05C715.236,215.608,715.202,216.72,715.202,218.389z"/>
		<linearGradient id="SVGID_20_" gradientUnits="userSpaceOnUse" x1="-4.6318" y1="143.7534" x2="1590.9865" y2="143.7534">
			<stop  offset="0" style="stop-color:#2E368E"/>
			<stop  offset="1" style="stop-color:#78CFEC"/>
		</linearGradient>
		<path fill="url(#SVGID_20_)" d="M767.191,220.057h-1.461c-10.014,0-17.803-3.546-23.365-10.639
			c-4.451-5.91-6.989-14.291-7.615-25.14c-0.278-4.241-0.417-8.483-0.417-12.726l0.104-5.842l-0.104-52.572
			c0-4.173,0.139-8.345,0.417-12.518c0.765-8.831,2.989-15.96,6.676-21.384c5.284-7.649,13.979-11.579,26.078-11.788
			c10.986,0.07,18.949,3.234,23.887,9.492c4.658,5.843,7.303,14.362,7.928,25.557c0.139,2.296,0.209,5.043,0.209,8.241l-0.104,5.215
			c0,34.424,0.033,53.443,0.104,57.059c0,4.799-0.209,9.633-0.625,14.499c-1.044,10.501-3.86,18.359-8.45,23.574
			C785.236,217.069,777.481,220.057,767.191,220.057z M766.878,201.908c0.835,0,1.669-0.068,2.504-0.209
			c4.59-0.556,7.302-4.798,8.136-12.727c0.418-3.476,0.626-6.813,0.626-10.014v-73.852c0-2.155-0.104-4.485-0.313-6.989
			c-0.766-8.345-4.313-12.518-10.639-12.518c-2.295,0-4.348,0.696-6.154,2.087c-2.365,2.086-3.826,4.868-4.381,8.345
			c-0.488,3.061-0.73,5.945-0.73,8.658v70.305l-0.105,4.277c0,4.868,0.452,9.7,1.356,14.5
			C758.497,199.196,761.73,201.908,766.878,201.908z"/>
		<linearGradient id="SVGID_21_" gradientUnits="userSpaceOnUse" x1="-4.6328" y1="143.8584" x2="1591.0012" y2="143.8584">
			<stop  offset="0" style="stop-color:#2E368E"/>
			<stop  offset="1" style="stop-color:#78CFEC"/>
		</linearGradient>
		<path fill="url(#SVGID_21_)" d="M863.721,218.389h-26.809L813.859,69.328h20.028l9.7,67.072
			c4.104,32.198,6.207,48.419,6.312,48.661c0.104,0.245,0.434,0.366,0.991,0.366c0.556,0,0.902-0.243,1.043-0.731
			c0.068-0.068,1.633-14.187,4.693-42.35l8.763-73.019h19.715c-13.769,96.106-20.741,144.68-20.915,145.723
			C864.016,216.094,863.859,217.208,863.721,218.389z"/>
		<linearGradient id="SVGID_22_" gradientUnits="userSpaceOnUse" x1="-4.6318" y1="143.8584" x2="1590.9974" y2="143.8584">
			<stop  offset="0" style="stop-color:#2E368E"/>
			<stop  offset="1" style="stop-color:#78CFEC"/>
		</linearGradient>
		<path fill="url(#SVGID_22_)" d="M937.928,191.998c-0.07-0.208-0.174-0.347-0.313-0.417c-0.141-0.068-0.279-0.104-0.417-0.104
			h-24.305c-0.349,0-0.574,0.122-0.679,0.366c-0.104,0.243-0.156,0.469-0.156,0.677l-3.129,25.87h-20.445l0.313-1.981
			c0.348-2.572,0.695-5.146,1.043-7.72c0.209-1.32,0.418-2.677,0.627-4.068c0-0.276,0.033-0.59,0.104-0.938
			c1.46-10.153,2.921-20.341,4.382-30.563l13.978-98.053c0.068-0.556,0.172-1.147,0.313-1.772c0-0.069,0-0.139,0-0.209
			c0.139-0.765,0.277-1.529,0.417-2.295l0.209-1.461h28.79l0.208,1.461c0.627,4.381,1.286,8.728,1.982,13.039l0.104,0.521
			c1.808,11.823,3.58,23.678,5.32,35.569l14.29,93.567c0.068,0.696,0.139,1.356,0.208,1.982c0.068,0.349,0.104,0.661,0.104,0.939
			l0.313,1.981h-19.61l-0.209-1.46c-1.113-8.137-2.19-16.237-3.233-24.306c-0.07-0.208-0.141-0.381-0.209-0.521V191.998z
			 M935.529,174.37l0.208-0.209c-1.183-8.554-2.331-17.107-3.442-25.661l-0.73-5.11c-1.6-11.892-3.165-23.747-4.693-35.57
			l-1.252-9.388c-0.14-0.765-0.453-1.147-0.938-1.147h-0.313h-0.104c-0.141,0-0.261,0.036-0.365,0.104
			c-0.104,0.069-0.192,0.208-0.261,0.417c-0.07,0.208-0.104,0.417-0.104,0.626l-8.137,66.342c-0.349,2.574-0.661,5.146-0.938,7.719
			c0,0.141-0.036,0.279-0.104,0.418l-0.104,1.251c0,0.07,0.034,0.141,0.104,0.209c0.139,0.14,0.277,0.244,0.418,0.313
			c0.138,0.07,0.242,0.104,0.313,0.104h19.715c0.139,0,0.276-0.034,0.417-0.104C935.354,174.614,935.459,174.509,935.529,174.37z"/>
		<linearGradient id="SVGID_23_" gradientUnits="userSpaceOnUse" x1="-4.6294" y1="143.8584" x2="1590.9921" y2="143.8584">
			<stop  offset="0" style="stop-color:#2E368E"/>
			<stop  offset="1" style="stop-color:#78CFEC"/>
		</linearGradient>
		<path fill="url(#SVGID_23_)" d="M1008.38,218.389h-20.966c0-75.799,0-117.28,0-124.444c0-3.964-0.089-6.032-0.262-6.206
			c-0.174-0.173-5.964-0.261-17.367-0.261v-18.15h55.702v18.15c-10.919,0-16.465,0.088-16.638,0.261
			c-0.175,0.174-0.262,21.298-0.262,63.369C1008.588,192.068,1008.519,214.495,1008.38,218.389z"/>
		<linearGradient id="SVGID_24_" gradientUnits="userSpaceOnUse" x1="-4.5732" y1="143.8584" x2="1590.9635" y2="143.8584">
			<stop  offset="0" style="stop-color:#2E368E"/>
			<stop  offset="1" style="stop-color:#78CFEC"/>
		</linearGradient>
		<path fill="url(#SVGID_24_)" d="M1065.584,218.389h-21.07c0-86.995,0.033-136.683,0.104-149.062h21.07
			C1065.688,161.331,1065.652,211.018,1065.584,218.389z"/>
		<linearGradient id="SVGID_25_" gradientUnits="userSpaceOnUse" x1="-4.624" y1="143.8584" x2="1590.9882" y2="143.8584">
			<stop  offset="0" style="stop-color:#2E368E"/>
			<stop  offset="1" style="stop-color:#78CFEC"/>
		</linearGradient>
		<path fill="url(#SVGID_25_)" d="M1258.674,218.389h-14.708l-32.545-92.942c-0.208-0.417-0.626-0.625-1.251-0.625
			c-0.35,0.14-0.521,0.383-0.521,0.729c0.138,2.574,0.276,6.643,0.417,12.205c0.694,21.628,1.043,35.466,1.043,41.516
			c-0.07,6.885-0.104,19.924-0.104,39.117h-19.506c0-96.453,0.034-144.957,0.104-145.515v-3.547h16.48l31.711,89.708
			c0.139,0.417,0.485,0.626,1.043,0.626c0.417,0,0.626-0.209,0.626-0.626c-1.113-29.138-1.669-46.87-1.669-53.198
			c0.068-14.047,0.104-26.217,0.104-36.51h18.88V215.05C1258.709,215.608,1258.674,216.72,1258.674,218.389z"/>
	</g>
	<g>
		<g>
			<linearGradient id="SVGID_26_" gradientUnits="userSpaceOnUse" x1="1109.5186" y1="182.5288" x2="1149.8557" y2="71.7033">
				<stop  offset="0" style="stop-color:#53BDE2"/>
				<stop  offset="1" style="stop-color:#262261"/>
			</linearGradient>
			<path fill="#FBED21" stroke="url(#SVGID_26_)" stroke-miterlimit="10" d="M1168.629,148.075
				c6.81-8.362,10.927-19.174,10.927-30.984c0-26.505-20.689-47.99-46.221-47.99c-25.517,0-46.214,21.485-46.214,47.99
				c0,11.811,4.125,22.622,10.942,30.984h-0.015c0,0,9.517,10.924,11.348,25.632c0,0-0.188,10.58,7.794,10.58h15.276h0.868h15.276
				c7.925,0,7.802-10.58,7.802-10.58c1.831-10.913,5.731-17.856,8.634-21.721c1.259-1.233,2.453-2.533,3.56-3.9
				C1168.614,148.082,1168.629,148.075,1168.629,148.075L1168.629,148.075z"/>
			<g>
				<linearGradient id="SVGID_27_" gradientUnits="userSpaceOnUse" x1="1129.5693" y1="195.791" x2="1134.5054" y2="182.2292">
					<stop  offset="0" style="stop-color:#53BDE2"/>
					<stop  offset="1" style="stop-color:#262261"/>
				</linearGradient>
				<path fill="none" stroke="url(#SVGID_27_)" stroke-miterlimit="10" d="M1151.753,190.247c0,0.923-0.695,1.672-1.549,1.672
					l-36.343-2.468c-0.847,0-1.542-0.753-1.542-1.68l0,0c0-0.922,0.695-1.675,1.542-1.675l36.343,2.472
					C1151.058,188.568,1151.753,189.316,1151.753,190.247L1151.753,190.247z"/>
				<linearGradient id="SVGID_28_" gradientUnits="userSpaceOnUse" x1="1129.5684" y1="201.1714" x2="1134.5034" y2="187.6124">
					<stop  offset="0" style="stop-color:#53BDE2"/>
					<stop  offset="1" style="stop-color:#262261"/>
				</linearGradient>
				<path fill="none" stroke="url(#SVGID_28_)" stroke-miterlimit="10" d="M1151.753,195.624c0,0.926-0.695,1.675-1.549,1.675
					l-36.343-2.468c-0.847,0-1.542-0.749-1.542-1.675l0,0c0-0.926,0.695-1.676,1.542-1.676l36.343,2.472
					C1151.058,193.952,1151.753,194.697,1151.753,195.624L1151.753,195.624z"/>
				<linearGradient id="SVGID_29_" gradientUnits="userSpaceOnUse" x1="1129.5674" y1="206.5522" x2="1134.5034" y2="192.9905">
					<stop  offset="0" style="stop-color:#53BDE2"/>
					<stop  offset="1" style="stop-color:#262261"/>
				</linearGradient>
				<path fill="none" stroke="url(#SVGID_29_)" stroke-miterlimit="10" d="M1151.753,201.003c0,0.923-0.695,1.679-1.549,1.679
					l-36.343-2.471c-0.847,0-1.542-0.749-1.542-1.676l0,0c0-0.926,0.695-1.675,1.542-1.675l36.343,2.468
					C1151.058,199.329,1151.753,200.078,1151.753,201.003L1151.753,201.003z"/>
				<linearGradient id="SVGID_30_" gradientUnits="userSpaceOnUse" x1="1126.4316" y1="220.4316" x2="1133.8489" y2="200.053">
					<stop  offset="0" style="stop-color:#53BDE2"/>
					<stop  offset="1" style="stop-color:#262261"/>
				</linearGradient>
				<polygon fill="none" stroke="url(#SVGID_30_)" stroke-miterlimit="10" points="1113.623,204.072 1150.45,206.876 
					1141.462,218.292 1122.212,218.292 				"/>
			</g>
		</g>
	</g>
</g>
</svg>
