<?xml version="1.0" encoding="utf-8"?>
<!-- Generator: Adobe Illustrator 16.0.0, SVG Export Plug-In . SVG Version: 6.00 Build 0)  -->
<!DOCTYPE svg PUBLIC "-//W3C//DTD SVG 1.1//EN" "http://www.w3.org/Graphics/SVG/1.1/DTD/svg11.dtd">
<svg version="1.1" id="Layer_1" xmlns="http://www.w3.org/2000/svg" xmlns:xlink="http://www.w3.org/1999/xlink" x="0px" y="0px"
	 width="900px" height="250px" viewBox="0 0 900 250" style="enable-background:new 0 0 900 250;" xml:space="preserve">
<g>
	<g>
		<g>
			<g>
				<path style="fill:#0071BC;" d="M37.673,108.045V42.828h58.22v11.393H48.976v42.431h47.007v11.393H37.673z M57.318,79.698v-9.599
					h36.152v9.599H57.318z"/>
				<path style="fill:#0071BC;" d="M116.349,60.321v47.724h-10.854V48.839c0-4.216,2.242-6.818,5.83-6.818
					c1.705,0,3.141,0.628,4.845,2.333l46.02,45.661V42.29h10.854v59.745c0,4.306-2.333,6.817-5.651,6.817
					c-1.885,0-3.589-0.807-5.203-2.422L116.349,60.321z"/>
				<path style="fill:#0071BC;" d="M184.079,108.045V42.828h58.22v11.393h-46.917v42.431h47.007v11.393H184.079z M203.725,79.698
					v-9.599h36.152v9.599H203.725z"/>
				<path style="fill:#0071BC;" d="M312.721,108.045l-16.506-18.121h-24.4V79.877h27.182c8.163,0,12.469-4.665,12.469-13.097
					c0-8.432-4.664-12.559-12.469-12.559h-35.524v53.824h-11.303V42.828h46.827c14.891,0,23.683,9.24,23.683,23.772
					c0,10.765-5.024,18.39-13.456,21.619l19.646,19.825H312.721z"/>
				<path style="fill:#0071BC;" d="M363.049,108.045c-18.21,0-31.666-14.353-31.666-33.281c0-19.197,13.456-31.936,31.666-31.936
					h35.345v11.393h-35.345c-11.661,0-20.273,8.701-20.273,21.081c0,12.29,8.522,21.35,20.273,21.35h27.899V79.698h-29.424v-9.599
					h40.906v37.946H363.049z"/>
				<path style="fill:#0071BC;" d="M443.07,108.045V83.286l-34.627-40.458h15.34L449.17,72.88l25.477-30.052h14.533l-34.717,40.458
					v24.759H443.07z"/>
			</g>
		</g>
		<g>
			<g>
				<path style="fill:#0071BC;" d="M38.297,191.188v-65.217h11.393v65.217H38.297z"/>
				<path style="fill:#0071BC;" d="M72.208,143.465v47.724H61.354v-59.206c0-4.217,2.242-6.818,5.83-6.818
					c1.705,0,3.141,0.628,4.845,2.333l46.02,45.66v-47.724h10.854v59.744c0,4.307-2.333,6.818-5.651,6.818
					c-1.885,0-3.589-0.808-5.203-2.422L72.208,143.465z"/>
				<path style="fill:#0071BC;" d="M150.524,143.465v47.724H139.67v-59.206c0-4.217,2.242-6.818,5.83-6.818
					c1.705,0,3.141,0.628,4.845,2.333l46.02,45.66v-47.724h10.854v59.744c0,4.307-2.333,6.818-5.651,6.818
					c-1.885,0-3.589-0.808-5.203-2.422L150.524,143.465z"/>
				<path style="fill:#0071BC;" d="M248.037,191.188c-18.21,0-31.666-14.353-31.666-33.281c0-19.197,13.456-31.936,31.666-31.936
					h15.879c18.838,0,31.936,13.008,31.936,31.936c0,18.929-13.367,33.281-31.936,33.281H248.037z M263.916,179.796
					c12.021,0,20.542-9.061,20.542-21.351c0-12.289-8.521-21.08-20.542-21.08h-15.879c-11.661,0-20.273,8.701-20.273,21.08
					c0,12.29,8.522,21.351,20.273,21.351H263.916z"/>
				<path style="fill:#0071BC;" d="M291.998,125.972h13.904l29.604,50.235l29.514-50.235h13.097l-37.587,62.436
					c-1.346,2.243-3.14,3.679-5.472,3.679c-2.513,0-4.217-1.436-5.563-3.679L291.998,125.972z"/>
				<path style="fill:#0071BC;" d="M432.841,191.188l-9.778-16.416h-30.859l5.383-9.24h20.004l-14.532-24.4l-29.603,50.057h-13.008
					l37.497-62.436c1.346-2.243,3.05-3.678,5.563-3.678c2.512,0,4.126,1.435,5.472,3.678l37.587,62.436H432.841z"/>
				<path style="fill:#0071BC;" d="M462.895,191.188v-53.823h-24.759v-11.394h60.911v11.394h-24.759v53.823H462.895z"/>
				<path style="fill:#0071BC;" d="M507.212,191.188v-65.217h11.393v65.217H507.212z"/>
				<path style="fill:#0071BC;" d="M560.319,191.188c-18.21,0-31.666-14.353-31.666-33.281c0-19.197,13.456-31.936,31.666-31.936
					h15.879c18.838,0,31.935,13.008,31.935,31.936c0,18.929-13.366,33.281-31.935,33.281H560.319z M576.198,179.796
					c12.021,0,20.542-9.061,20.542-21.351c0-12.289-8.521-21.08-20.542-21.08h-15.879c-11.661,0-20.273,8.701-20.273,21.08
					c0,12.29,8.522,21.351,20.273,21.351H576.198z"/>
				<path style="fill:#0071BC;" d="M627.962,143.465v47.724h-10.854v-59.206c0-4.217,2.242-6.818,5.83-6.818
					c1.705,0,3.141,0.628,4.845,2.333l46.02,45.66v-47.724h10.854v59.744c0,4.307-2.333,6.818-5.651,6.818
					c-1.885,0-3.589-0.808-5.203-2.422L627.962,143.465z"/>
			</g>
		</g>
		<g>
			<rect x="696.229" y="20.765" style="fill:#0071BC;" width="166.098" height="174.56"/>
			<g>
				<path style="fill:#FFFFFF;" d="M716.359,94.38V77.372c0-11.143,5.865-16.673,17.093-16.673h23.292
					c6.871,0,11.144-4.189,11.144-10.725c0-6.284-3.938-10.892-11.228-10.892h-39.798v-5.614h39.798
					c11.061,0,17.177,6.955,17.177,16.171c0,9.468-6.535,16.338-17.093,16.338h-23.292c-7.709,0-11.73,3.687-11.73,11.227v11.563
					h51.109v5.614H716.359z"/>
				<path style="fill:#FFFFFF;" d="M783.388,63.296c0-17.93,13.155-30.582,30.499-30.582c17.176,0,30.498,12.652,30.498,30.582
					c0,17.679-13.322,31.838-30.498,31.838C796.543,95.134,783.388,80.975,783.388,63.296z M838.687,63.547
					c0-14.662-10.138-25.136-24.8-25.136c-14.747,0-24.801,10.474-24.801,25.136c0,14.495,9.97,25.974,24.801,25.974
					C828.549,89.521,838.687,78.042,838.687,63.547z"/>
			</g>
			<g>
				<path style="fill:#FFFFFF;" d="M716.359,176.603v-17.009c0-11.144,5.865-16.673,17.093-16.673h23.292
					c6.871,0,11.144-4.189,11.144-10.726c0-6.283-3.938-10.892-11.228-10.892h-39.798v-5.614h39.798
					c11.061,0,17.177,6.955,17.177,16.171c0,9.468-6.535,16.338-17.093,16.338h-23.292c-7.709,0-11.73,3.687-11.73,11.228v11.563
					h51.109v5.613H716.359z"/>
				<path style="fill:#FFFFFF;" d="M785.147,176.603v-17.009c0-11.144,5.865-16.673,17.093-16.673h23.292
					c6.871,0,11.144-4.189,11.144-10.726c0-6.283-3.938-10.892-11.228-10.892H785.65v-5.614h39.798
					c11.061,0,17.177,6.955,17.177,16.171c0,9.468-6.535,16.338-17.093,16.338H802.24c-7.709,0-11.73,3.687-11.73,11.228v11.563
					h51.109v5.613H785.147z"/>
			</g>
		</g>
		<g>
			<path style="fill:#0099D1;" d="M644.865,104.367c0.615-0.147,1.146-0.338,1.703-0.616c-1.612,0.525-2.574,0.323-3.278,0.248
				c-0.556-0.06-1.06-0.16-1.567-0.225v0.291c0.506,0.162,1.047,0.297,1.679,0.377C644.037,104.524,644.489,104.458,644.865,104.367
				z"/>
			<polygon style="fill:#EF4130;" points="684.904,108.045 483.055,108.045 483.055,103.626 641.693,103.626 642.965,106.766 
				654.818,106.766 656.14,99.966 684.904,99.966 			"/>
			<g>
				<g>
					<path style="fill:#EF4130;" d="M495.939,64.41c-0.549,0-0.992-0.444-0.992-0.992v-1.983c0-0.548,0.443-0.992,0.992-0.992
						c0.548,0,0.991,0.443,0.991,0.992v1.983C496.931,63.966,496.487,64.41,495.939,64.41z"/>
				</g>
				<g>
					<path style="fill:#EF4130;" d="M484.038,68.381c-0.254,0-0.508-0.097-0.702-0.291l-1.982-1.983
						c-0.388-0.388-0.388-1.015,0-1.402c0.387-0.388,1.015-0.388,1.402,0l1.982,1.983c0.388,0.387,0.388,1.015,0,1.402
						C484.545,68.284,484.291,68.381,484.038,68.381z"/>
				</g>
				<g>
					<path style="fill:#EF4130;" d="M507.84,68.377c-0.254,0-0.508-0.097-0.701-0.291c-0.388-0.387-0.388-1.015,0-1.402l1.983-1.983
						c0.388-0.388,1.015-0.388,1.402,0c0.388,0.387,0.388,1.015,0,1.402l-1.983,1.983C508.347,68.28,508.094,68.377,507.84,68.377z"
						/>
				</g>
				<g>
					<path style="fill:#EF4130;" d="M480.072,80.277h-1.984c-0.548,0-0.991-0.443-0.991-0.992c0-0.548,0.443-0.992,0.991-0.992
						h1.984c0.548,0,0.991,0.444,0.991,0.992C481.063,79.834,480.62,80.277,480.072,80.277z"/>
				</g>
				<g>
					<path style="fill:#EF4130;" d="M484.702,84.163c-0.409,0-0.791-0.254-0.936-0.663c-0.478-1.352-0.72-2.772-0.72-4.215
						c0-7.108,5.783-12.892,12.893-12.892c3.675,0,7.188,1.584,9.64,4.347c0.363,0.41,0.326,1.036-0.083,1.4
						c-0.41,0.358-1.036,0.325-1.4-0.083c-2.076-2.34-5.048-3.68-8.156-3.68c-6.016,0-10.909,4.895-10.909,10.909
						c0,1.218,0.204,2.416,0.607,3.556c0.182,0.515-0.089,1.083-0.605,1.265C484.923,84.146,484.812,84.163,484.702,84.163z"/>
				</g>
				<g>
					<path style="fill:#EF4130;" d="M523.707,98.128h-41.651c-0.353,0-0.678-0.186-0.855-0.488
						c-0.179-0.304-0.183-0.678-0.012-0.986l9.917-17.851c0.174-0.313,0.507-0.509,0.867-0.509h21.817
						c0.36,0,0.692,0.196,0.866,0.509l9.918,17.851c0.17,0.308,0.166,0.682-0.012,0.986
						C524.384,97.942,524.059,98.128,523.707,98.128z M483.74,96.145h38.281l-8.815-15.868h-20.649L483.74,96.145z"/>
				</g>
				<g>
					<path style="fill:#EF4130;" d="M505.856,108.045h-5.95c-0.549,0-0.992-0.444-0.992-0.992v-9.917
						c0-0.548,0.443-0.992,0.992-0.992h5.95c0.548,0,0.991,0.443,0.991,0.992v9.917
						C506.848,107.602,506.404,108.045,505.856,108.045z M500.897,106.062h3.967v-7.934h-3.967V106.062z"/>
				</g>
				<g>
					<path style="fill:#EF4130;" d="M494.948,98.128c-0.071,0-0.144-0.008-0.216-0.023c-0.535-0.12-0.872-0.649-0.754-1.184
						l3.967-17.851c0.119-0.535,0.653-0.862,1.184-0.753c0.535,0.12,0.872,0.649,0.754,1.183l-3.967,17.851
						C495.813,97.814,495.402,98.128,494.948,98.128z"/>
				</g>
				<g>
					<path style="fill:#EF4130;" d="M510.813,98.128c-0.454,0-0.864-0.314-0.967-0.777L505.88,79.5
						c-0.118-0.534,0.219-1.063,0.753-1.183c0.535-0.11,1.065,0.219,1.184,0.753l3.967,17.851c0.118,0.535-0.219,1.063-0.754,1.184
						C510.957,98.121,510.886,98.128,510.813,98.128z"/>
				</g>
				<g>
					<rect x="488.667" y="84.244" style="fill:#EF4130;" width="28.429" height="1.983"/>
				</g>
				<g>
					<rect x="485.36" y="90.194" style="fill:#EF4130;" width="35.04" height="1.983"/>
				</g>
			</g>
			<g>
				<path style="fill:#EF4130;" d="M556.405,60.806c-1.508,0.546-2.877,1.262-4.036,2.072c0.148,0.027,0.296,0.058,0.439,0.089
					c1.512-1.029,3.396-1.901,5.539-2.421h0.004c0.363-0.04,0.726-0.076,1.097-0.103c-1.532,0.716-2.88,1.873-3.969,3.181
					c0.125,0.032,0.246,0.067,0.371,0.107c1.253-1.464,2.888-2.771,4.729-3.365c0,0,0.005-0.004,0.01,0
					c0.205-0.009,0.411-0.018,0.617-0.022c-1.121,1.019-1.982,3.025-2.483,4.448c0.099,0.045,0.196,0.089,0.295,0.139
					c0.501-1.4,1.512-3.785,2.748-4.604c0.228-0.005,0.451-0.009,0.68-0.009v6.801c0.116,0.103,0.229,0.206,0.336,0.313v-7.115
					c0.228,0,0.456,0.004,0.685,0.009c1.048,0.702,1.901,2.482,2.38,3.652c0.623,1.523,1.056,3.098,1.19,3.932
					c-0.16-0.002-2.689-0.013-3.816-0.013c0.25,0.286,0.474,0.582,0.671,0.886c4.148-0.051,8.282,0.003,16.811-0.416v26.745h1.074
					c0.403,0,0.797,0.058,1.163,0.174V68.341c0-5.848-8.738-10.26-20.323-10.26c-6.913,0-12.811,1.571-16.439,4.077
					c1.84,0.085,3.549,0.295,4.005,0.367C551.953,61.772,554.065,61.186,556.405,60.806z M580.702,68.31
					c-0.941-0.046-2.834-0.139-4.026-0.179c-0.095-1.548-1.244-3.239-3.07-4.698c-1.297-1.038-2.935-1.959-4.778-2.626
					C575.731,61.929,580.671,64.864,580.702,68.31z M566.881,60.546h0.004c2.475,0.578,4.856,1.802,6.496,3.13
					c1.777,1.441,2.853,3.074,2.954,4.441c-1.29-0.055-3.08-0.098-4.313-0.125c-0.146-1.094-0.933-2.716-2.164-4.237
					c-1.102-1.361-2.513-2.579-4.077-3.311C566.155,60.47,566.519,60.506,566.881,60.546z M564.644,60.367
					c0.004-0.004,0.004,0,0.009,0c1.906,0.614,3.619,2.017,4.89,3.559c1.205,1.462,1.987,3.021,2.14,4.062
					c-0.99-0.024-3.866-0.066-4.313-0.071c-0.133-0.812-0.552-2.419-1.185-3.997c-0.467-1.165-1.225-2.727-2.158-3.574
					C564.231,60.349,564.438,60.358,564.644,60.367z"/>
				<path style="fill:#EF4130;" d="M581.776,96.455h-18.18V72.261c0-6.706-12.331-8.819-19.778-8.819
					c-9.826,0-19.777,3.029-19.777,8.819v24.467c-0.868,0.43-1.468,1.324-1.468,2.358v6.403h61.834v-6.403
					C584.407,97.626,583.215,96.455,581.776,96.455z M556.951,67.934c1.849,0.837,4.379,2.262,4.408,4.295
					c-1.903-0.098-3.375-0.161-3.894-0.179c-0.135-1.64-1.886-3.183-3.279-4.076c-1.112-0.732-2.449-1.347-3.728-1.786
					C554.41,66.812,556.951,67.934,556.951,67.934z M547.305,65.817c0.371,0.027,0.733,0.063,1.096,0.103h0.022
					c1.914,0.479,3.765,1.121,5.532,2.281c1.285,0.843,3.003,2.322,3.171,3.836c-1.24-0.055-3.004-0.098-4.179-0.125
					c-0.246-1.38-1.611-3.076-2.731-4.099c-0.945-0.863-1.937-1.513-2.942-1.968C547.282,65.835,547.291,65.826,547.305,65.817z
					 M545.989,65.732h0.004c1.479,0.441,2.881,1.322,3.996,2.349c0.998,0.885,2.358,2.543,2.617,3.826
					c-0.707-0.018-1.437-0.032-2.184-0.041c-0.648-0.009-1.315-0.022-1.991-0.031c-0.206-1.144-0.923-2.907-1.324-3.642
					c-0.381-0.745-1.154-2.016-1.803-2.488C545.344,65.705,545.875,65.726,545.989,65.732z M543.988,65.679
					c0.163,0,0.729,0.009,0.729,0.009c0.743,0.297,1.721,1.952,2.089,2.683c0.602,1.196,1.104,2.573,1.285,3.461
					c-0.099-0.001-4.076-0.018-4.104-0.018V65.679z M542.924,65.688c0.241-0.004,0.483-0.009,0.729-0.009v6.134h-0.019l-4.085,0.022
					c0.147-0.743,0.595-2.094,1.23-3.365h0.005c0.442-0.919,1.256-2.256,2.134-2.783H542.924z M541.653,65.732
					c0.228-0.014,0.451-0.022,0.68-0.027c-0.817,0.689-1.485,1.83-1.95,2.797c-0.618,1.28-1.039,2.604-1.178,3.342
					c-0.641,0.004-2.715,0.026-4.17,0.063c0.224-1.104,1.253-2.453,2.091-3.316c1.233-1.27,2.821-2.348,4.522-2.859H541.653z
					 M539.236,65.92c0.398-0.044,0.806-0.08,1.218-0.112c-1.356,0.595-2.6,1.512-3.632,2.593c-0.874,0.917-1.918,2.334-2.127,3.51
					c-1.031,0.024-3.146,0.08-4.184,0.125c0.164-1.474,1.785-2.909,3.03-3.743c1.677-1.123,3.705-1.915,5.654-2.369
					C539.21,65.925,539.224,65.92,539.236,65.92z M537.179,66.188c-1.471,0.507-2.786,1.157-3.871,1.88
					c-1.348,0.897-3.006,2.391-3.137,3.982c-0.366,0.013-2.213,0.092-3.893,0.179C526.314,69.549,530.874,67.187,537.179,66.188z
					 M582.17,103.251h-57.359v-4.166c0-0.215,0.179-0.394,0.394-0.394h1.074V72.288c5.866,0.304,11.611,0.42,17.56,0.42
					c0.13,0,0.779-0.009,1.842-0.009l-3.042,3.042h-2.363v1.342h2.363c2.197,2.198,3.463,3.459,3.463,3.459s-1.204,1.2-3.463,3.459
					h-2.363v1.342h2.363c2.271,2.271,3.463,3.459,3.463,3.459l-3.463,3.463h-2.363v1.343h2.363c2.319,2.32,1.53,1.532,3.463,3.458
					c-2.336,2.336-0.578,0.574-2.568,2.564h1.897c1.16-1.154,0.728-0.723,1.897-1.893h2.362v-1.342h-2.362
					c-2.895-2.894-1.709-1.705-3.464-3.459l3.464-3.463h2.362v-1.342h-2.362c-2.895-2.894-1.709-1.704-3.464-3.459
					c1.749-1.749,0.557-0.552,3.464-3.459h2.362v-1.342h-2.362c-2.895-2.894-1.709-1.704-3.464-3.458l3.725-3.725
					c0.963-0.005,1.914-0.025,2.835-0.034c5.037-0.075,8.125-0.221,10.937-0.367v26.404h20.417c0.22,0,0.394,0.179,0.394,0.394
					V103.251z"/>
				<rect x="542.029" y="100.526" style="fill:#EF4130;" width="3.525" height="1.342"/>
				<polygon style="fill:#EF4130;" points="527.478,100.526 527.478,101.869 531.004,101.869 531.004,100.566 531.004,100.526 
					528.963,100.526 				"/>
				<polygon style="fill:#EF4130;" points="532.328,100.566 532.328,101.869 535.854,101.869 535.854,100.566 535.854,100.526 
					532.328,100.526 				"/>
				<polygon style="fill:#EF4130;" points="537.179,100.566 537.179,101.869 540.704,101.869 540.704,100.566 540.704,100.526 
					537.179,100.526 				"/>
				<rect x="561.426" y="100.526" style="fill:#EF4130;" width="3.526" height="1.342"/>
				<rect x="566.276" y="100.526" style="fill:#EF4130;" width="3.526" height="1.342"/>
				<rect x="571.127" y="100.526" style="fill:#EF4130;" width="3.525" height="1.342"/>
				<rect x="575.978" y="100.526" style="fill:#EF4130;" width="3.525" height="1.342"/>
				<polygon style="fill:#EF4130;" points="551.726,100.566 551.726,101.869 555.256,101.869 555.256,100.566 555.256,100.526 
					551.726,100.526 				"/>
				<polygon style="fill:#EF4130;" points="556.576,100.526 556.576,100.566 556.576,101.869 560.106,101.869 560.106,100.526 
					558.674,100.526 				"/>
				<polygon style="fill:#EF4130;" points="546.879,100.566 546.879,101.869 550.405,101.869 550.405,100.566 550.405,100.526 
					546.879,100.526 				"/>
			</g>
			<g>
				<g>
					<g>
						<path style="fill:#EF4130;" d="M600.447,97.193h1.786v0.568h-2.354v-0.584c0-0.41,0.133-0.708,0.399-0.894
							c0.09-0.063,0.194-0.119,0.313-0.168l0.641-0.268c0.141-0.06,0.244-0.134,0.311-0.224c0.065-0.089,0.099-0.201,0.099-0.333
							c0-0.133-0.044-0.245-0.13-0.334c-0.087-0.089-0.211-0.134-0.371-0.134s-0.293,0.042-0.397,0.126
							c-0.104,0.084-0.164,0.208-0.181,0.373h-0.631c0.007-0.333,0.124-0.594,0.352-0.783c0.209-0.172,0.49-0.258,0.843-0.258
							c0.324,0,0.593,0.095,0.805,0.284c0.215,0.196,0.322,0.436,0.322,0.72c0,0.284-0.065,0.511-0.195,0.681
							s-0.331,0.313-0.604,0.428l-0.649,0.273c-0.126,0.053-0.216,0.111-0.272,0.176c-0.056,0.065-0.084,0.148-0.084,0.25V97.193z"
							/>
					</g>
					<polygon style="fill:#EF4130;" points="594.386,93.554 597.489,93.554 597.489,97.22 599.078,97.22 599.078,88.665 
						597.489,88.665 597.489,92.197 594.386,92.197 594.386,88.665 592.797,88.665 592.797,97.22 594.386,97.22 					"/>
				</g>
				<path style="fill:#EF4130;" d="M607.869,104.766l-1.283-7.278c0.711-1.501,1.109-3.177,1.109-4.946
					c0-6.39-5.198-11.588-11.588-11.588s-11.589,5.199-11.589,11.588c0,1.769,0.399,3.445,1.11,4.946l-1.283,7.278h-0.854v1.57
					h25.979v-1.57H607.869z M596.107,82.524c5.524,0,10.019,4.495,10.019,10.019c0,5.524-4.494,10.019-10.019,10.019
					s-10.019-4.494-10.019-10.019C586.089,87.019,590.583,82.524,596.107,82.524z M585.94,104.766l0.924-5.242
					c2.117,2.796,5.473,4.607,9.243,4.607s7.125-1.81,9.243-4.607l0.924,5.242H585.94z"/>
			</g>
			<path style="fill:#00ADD2;" d="M671.971,106.766h-29.004l-1.124-2.785l0,0c0.346,0.125,0.712,0.186,1.079,0.179l2.678-0.03
				c0.119-0.002,0.738-0.146,1.454-0.21l0.639-0.15c0.309-0.072,0.626-0.097,0.942-0.071l0.309-0.049
				c0.327-0.052,0.661-0.013,0.967,0.112l0,0c0.772,0.314,1.615,0.415,2.439,0.291l0,0c0.881-0.133,1.776-0.125,2.654,0.024
				l0.251,0.043h17.799L671.971,106.766z"/>
			<g>
				<defs>
					<polygon id="SVGID_1_" points="671.971,106.766 642.967,106.766 641.898,104.119 673.054,104.119 					"/>
				</defs>
				<clipPath id="SVGID_2_">
					<use xlink:href="#SVGID_1_"  style="overflow:visible;"/>
				</clipPath>
				<g style="clip-path:url(#SVGID_2_);">
					<g>
						<path style="fill:#00BFE8;" d="M656.782,107.146c-0.171-0.023-0.376-0.035-0.552-0.038c-0.696-0.014-1.168,0.233-1.26,0.258
							c0.435-0.116,0.688-0.172,1.107-0.095c0.321,0.059,0.462,0.095,0.754,0.149c0.231,0.043,0.458,0.071,0.729,0.096v-0.274
							C657.243,107.179,656.906,107.162,656.782,107.146z"/>
						<path style="fill:#00BFE8;" d="M654.118,106.416c-0.848-0.025-1.141,0.116-1.849,0.234c-0.357,0.06-0.788,0.083-1.133,0.035
							c-0.377-0.053-0.739-0.09-1.186-0.224c0.29,0.09,0.611,0.182,0.91,0.266c0.698,0.195,1.406,0.347,2.117,0.458
							c0.682,0.106,1.374,0.047,2.039-0.078c0.795-0.15,1.047-0.142,1.63-0.091c0,0-1.056-0.268-1.353-0.375
							C654.967,106.522,654.464,106.426,654.118,106.416z"/>
						<path style="fill:#0099D1;" d="M656.369,106.11c-0.375-0.078-0.816-0.154-0.963-0.185c-0.731-0.154-1.143-0.172-1.965,0.138
							c-0.314,0.119-1.159,0.5-1.832,0.562c0.744-0.058,1.169-0.168,1.788-0.302c0.392-0.085,1.146-0.05,1.637,0.067
							c0.712,0.169,1.079,0.364,1.686,0.527c0.229,0.062,0.554,0.119,0.842,0.139v-0.799
							C657.322,106.242,656.636,106.166,656.369,106.11z"/>
						<path style="fill:#027CB7;" d="M656.865,105.685c-0.395-0.038-0.742-0.064-1.02-0.072c-0.414-0.012-0.83-0.007-1.236,0.069
							c0.197-0.006,0.404,0.013,0.6,0.051c0.404,0.078,0.826,0.138,1.234,0.206c0.4,0.066,0.662,0.1,1.118,0.141v-0.318
							C657.286,105.722,657.042,105.702,656.865,105.685z"/>
						<path style="fill:#00BFE8;" d="M656.606,104.729c-0.565-0.09-0.895-0.125-1.505-0.095c-0.588,0.028-1.319,0.157-1.826,0.461
							c0.311-0.136,0.625-0.235,0.961-0.282c0.584-0.081,1.098-0.019,1.669,0.131c0.526,0.138,0.962,0.358,1.656,0.482v-0.463
							C657.295,104.87,656.859,104.77,656.606,104.729z"/>
						<path style="fill:#0099D1;" d="M657.133,103.711c-0.384-0.061-0.739-0.137-1.232-0.181c0.121,0.012,0.515,0.139,0.666,0.181
							c0.35,0.097,0.627,0.233,0.995,0.354v-0.291C657.439,103.746,657.269,103.732,657.133,103.711z"/>
						<path style="fill:#027CB7;" d="M655.129,103.607c-0.522,0.026-1.025,0.155-1.502,0.367c-0.409,0.183-0.799,0.403-1.223,0.552
							c-0.434,0.153-0.882,0.225-1.337,0.278c0.05,0.007,0.68,0.104,1.405-0.035c0.417-0.08,0.862-0.195,1.269-0.312
							c0.441-0.126,0.868-0.215,1.329-0.183c0.427,0.03,0.831,0.117,1.241,0.234c0.401,0.115,0.712,0.18,1.25,0.275v-0.507
							c-0.352-0.108-0.8-0.306-1.177-0.448C655.963,103.669,655.58,103.584,655.129,103.607z"/>
						<path style="fill:#0099D1;" d="M656.182,105.178c-0.492-0.13-0.989-0.226-1.501-0.223c-0.519,0.003-1.013,0.139-1.486,0.344
							c-0.425,0.185-0.834,0.399-1.271,0.554c-1.014,0.358-1.974,0.269-3.002,0.054c-1.005-0.21-2.126-0.011-2.419,0.071
							c1.061-0.203,1.916-0.01,2.723,0.168c0.428,0.095,0.981,0.318,2.263,0.315c0.423-0.001,0.926-0.139,1.558-0.365
							c0.367-0.131,1.039-0.47,2.073-0.61c0.543-0.074,1.138,0.024,1.669,0.088c0.035,0.004,0.539,0.09,0.774,0.095v-0.104
							C657.105,105.467,656.64,105.299,656.182,105.178z"/>
						<path style="fill:#00BFE8;" d="M653.516,104.652c-1,0.323-1.807,0.374-2.359,0.347c-0.361-0.018-0.723-0.13-1.063-0.246
							c-0.38-0.129-0.739-0.307-1.127-0.411c-0.235-0.063-0.479-0.098-0.722-0.087c-0.472,0.021-0.921,0.192-1.321,0.434
							c-0.213,0.128-0.412,0.276-0.611,0.426c0.342-0.187,0.678-0.365,1.072-0.4c0.364-0.033,0.751,0,1.108,0.078
							c0.158,0.034,0.312,0.085,0.464,0.137l0.367,0.161c1.153,0.562,2.002,0.605,2.785,0.331c0.452-0.159,0.888-0.363,1.332-0.541
							c0.458-0.184,0.941-0.345,1.432-0.39c0.468-0.043,0.913,0.063,1.381,0.107C655.766,104.5,654.804,104.236,653.516,104.652z"/>
						<path style="fill:#027CB7;" d="M650.585,103.715c-0.678-0.17-1.159-0.145-1.159-0.145s0.873,0.46,1.232,0.578
							c0.34,0.11,0.688,0.174,1.046,0.169c0.341-0.004,0.676-0.067,1.004-0.156c0.328-0.088,0.649-0.201,0.971-0.311
							c0,0-0.82,0.263-1.464,0.263C651.588,104.113,651.189,103.867,650.585,103.715z"/>
						<path style="fill:#0099D1;" d="M650.136,104.13c-0.398-0.209-0.834-0.408-1.28-0.473c-0.534-0.077-1.071-0.049-1.579,0.141
							c-0.431,0.161-0.821,0.407-1.262,0.543c-0.39,0.121-0.79,0.199-1.181,0.313c0.749-0.091,0.964-0.136,1.443-0.24
							c0.502-0.109,0.854-0.209,1.594-0.271c0.56-0.047,0.903-0.058,1.362,0.082c0.627,0.191,1.194,0.373,1.68,0.394
							c0.483,0.021,0.865-0.066,1.337-0.171C652.25,104.448,651.127,104.651,650.136,104.13z"/>
						<path style="fill:#0099D1;" d="M645.042,104.367c0.615-0.147,1.146-0.338,1.702-0.616c-1.611,0.525-2.574,0.323-3.277,0.248
							c-0.556-0.06-1.061-0.16-1.568-0.225v0.291c0.507,0.162,1.047,0.297,1.679,0.377
							C644.213,104.524,644.666,104.458,645.042,104.367z"/>
						<path style="fill:#027CB7;" d="M647.124,106.066c0.006,0,0.012,0,0.018,0c-0.003,0-0.006,0-0.007,0
							C647.125,106.065,647.118,106.066,647.124,106.066z"/>
						<path style="fill:#027CB7;" d="M651.765,107.182c-0.356-0.077-0.703-0.19-1.05-0.303c-0.352-0.115-0.678-0.258-1.021-0.39
							c-0.412-0.158-0.821-0.263-1.258-0.327c-0.426-0.062-0.863-0.098-1.294-0.096c0.089,0.009,0.822,0.084,1.375,0.347
							c0.392,0.186,0.674,0.352,1.062,0.542c0.422,0.208,0.855,0.396,1.315,0.504c0.448,0.104,0.897,0.125,1.356,0.101
							c0.535-0.029,1.069-0.121,1.599-0.202C653.849,107.357,652.795,107.405,651.765,107.182z"/>
						<path style="fill:#027CB7;" d="M646.189,107.344c0.002,0,0.005-0.001,0.007-0.002
							C646.194,107.343,646.191,107.344,646.189,107.344C646.182,107.344,646.182,107.344,646.189,107.344z"/>
						<path style="fill:#00BFE8;" d="M649.752,107.281c-0.579-0.21-1.139-0.397-1.766-0.376c-0.624,0.021-1.203,0.25-1.79,0.438
							c0.351-0.099,0.841-0.173,1.204-0.148c0.568,0.04,1.123,0.182,1.756,0.334c0.685,0.165,1.377,0.218,2.076,0.14l-0.622-0.097
							C650.311,107.503,650.039,107.386,649.752,107.281z"/>
						<path style="fill:#027CB7;" d="M650.877,105.687c-0.595-0.04-1.101-0.283-1.645-0.498c-0.561-0.222-1.132-0.422-1.744-0.33
							c-0.972,0.146-1.538,0.722-2.012,1.107c-1.006,0.818-1.129,0.878-1.942,1.1c1.152-0.153,1.541-0.539,2.061-0.777
							c0.615-0.282,1.222-0.601,1.901-0.688c0.456-0.059,0.937-0.02,1.391,0.044c0.413,0.058,0.808,0.196,1.219,0.255
							c1.504,0.215,2.623-0.573,2.623-0.573C652.079,105.657,651.439,105.725,650.877,105.687z"/>
						<path style="fill:#0099D1;" d="M646.28,106.268c-0.706,0.2-1.496,0.667-2.095,0.815c-0.364,0.09-1.332,0.128-1.643,0.132
							c1.08,0.14,2.288,0.245,3.295-0.047c0.446-0.13,0.901-0.23,1.358-0.318c0.439-0.085,0.899-0.092,1.343-0.031
							c0.421,0.058,0.809,0.181,1.188,0.374c0,0-1.306-0.823-2.204-0.975C647.141,106.154,646.652,106.163,646.28,106.268z"/>
						<path style="fill:#027CB7;" d="M644.035,104.952c0.516-0.027,0.998-0.134,1.499-0.244c-0.265,0.024-0.53,0.068-0.795,0.082
							c-0.538,0.026-1.073-0.014-1.596-0.145c-0.424-0.106-0.807-0.218-1.245-0.368v0.507c0.27,0.047,0.635,0.104,0.824,0.127
							C643.24,104.972,643.513,104.979,644.035,104.952z"/>
						<path style="fill:#027CB7;" d="M645.555,104.704c-0.007,0.001-0.014,0.003-0.021,0.004c0.004,0,0.008-0.001,0.011-0.001
							C645.545,104.707,645.569,104.702,645.555,104.704z"/>
						<path style="fill:#027CB7;" d="M642.634,105.088c-0.004-0.001-0.007-0.002-0.013-0.003
							C642.626,105.086,642.63,105.087,642.634,105.088z"/>
						<path style="fill:#027CB7;" d="M643.604,105.151c-0.318,0-0.639-0.02-0.955-0.06c0.465,0.107,0.945,0.207,1.422,0.241
							c0.495,0.036,1.033,0.008,1.511-0.15c0.677-0.225,1.152-0.598,1.72-0.844c-0.473,0.108-1.418,0.422-1.994,0.583
							C644.742,105.078,644.189,105.152,643.604,105.151z"/>
						<ellipse style="fill:#027CB7;" cx="642.641" cy="105.09" rx="0.007" ry="0.001"/>
						<path style="fill:#027CB7;" d="M644.221,107.536c-0.006,0-0.012,0-0.017,0c-0.001,0-0.002,0-0.003,0c0.001,0,0.002,0,0.002,0
							C644.209,107.537,644.215,107.536,644.221,107.536z"/>
						<path style="fill:#00BFE8;" d="M643.502,107.447c-0.516-0.016-0.964-0.096-1.604-0.206v0.274
							c0.367,0.047,0.635,0.029,0.782,0.02C642.998,107.516,643.212,107.465,643.502,107.447z"/>
						<path style="fill:#0099D1;" d="M643.143,105.751c-0.169-0.015-0.79-0.089-1.244-0.179v0.1
							C642.351,105.699,642.695,105.747,643.143,105.751z"/>
						<path style="fill:#0099D1;" d="M644.637,106.386c0.644-0.366,1.71-1.4,1.71-1.4s-0.903,0.674-1.677,0.973
							c-0.574,0.222-1.239,0.339-1.957,0.34c-0.267,0-0.549-0.025-0.814-0.042v0.799c0.414,0.025,0.659,0.002,0.969-0.036
							C643.49,106.945,644.025,106.733,644.637,106.386z"/>
						<path style="fill:#00BFE8;" d="M645.704,105.276c-0.267,0.09-0.54,0.165-0.817,0.207c-0.548,0.083-1.092,0.015-1.63-0.11
							c-0.483-0.112-0.902-0.243-1.358-0.409v0.463c0.21,0.039,0.709,0.129,0.92,0.163
							C644.786,105.898,645.71,105.272,645.704,105.276z"/>
						<path style="fill:#027CB7;" d="M645.045,105.663c-0.409,0.109-1.05,0.199-1.611,0.195c-0.419-0.003-1.146-0.041-1.535-0.095
							v0.318c0.389,0.036,0.742,0.047,1.086,0.035C643.764,106.088,644.849,105.76,645.045,105.663z"/>
					</g>
					<g>
						<path style="fill:#00BFE8;" d="M672.439,107.146c-0.17-0.023-0.375-0.035-0.551-0.038c-0.696-0.014-1.169,0.233-1.26,0.258
							c0.435-0.116,0.687-0.172,1.106-0.095c0.322,0.059,0.463,0.095,0.755,0.149c0.231,0.043,0.458,0.071,0.729,0.096v-0.274
							C672.9,107.179,672.563,107.162,672.439,107.146z"/>
						<path style="fill:#00BFE8;" d="M669.776,106.416c-0.849-0.025-1.141,0.116-1.849,0.234c-0.358,0.06-0.788,0.083-1.133,0.035
							c-0.377-0.053-0.739-0.09-1.187-0.224c0.29,0.09,0.612,0.182,0.911,0.266c0.698,0.195,1.406,0.347,2.117,0.458
							c0.682,0.106,1.374,0.047,2.039-0.078c0.795-0.15,1.047-0.142,1.63-0.091c0,0-1.056-0.268-1.353-0.375
							C670.624,106.522,670.122,106.426,669.776,106.416z"/>
						<path style="fill:#0099D1;" d="M672.027,106.11c-0.375-0.078-0.816-0.154-0.963-0.185c-0.731-0.154-1.143-0.172-1.965,0.138
							c-0.314,0.119-1.16,0.5-1.832,0.562c0.744-0.058,1.168-0.168,1.788-0.302c0.391-0.085,1.146-0.05,1.637,0.067
							c0.712,0.169,1.079,0.364,1.686,0.527c0.229,0.062,0.553,0.119,0.842,0.139v-0.799
							C672.98,106.242,672.293,106.166,672.027,106.11z"/>
						<path style="fill:#027CB7;" d="M672.522,105.685c-0.395-0.038-0.742-0.064-1.019-0.072c-0.415-0.012-0.831-0.007-1.237,0.069
							c0.198-0.006,0.405,0.013,0.601,0.051c0.404,0.078,0.826,0.138,1.234,0.206c0.399,0.066,0.661,0.1,1.118,0.141v-0.318
							C672.944,105.722,672.7,105.702,672.522,105.685z"/>
						<path style="fill:#00BFE8;" d="M672.265,104.729c-0.566-0.09-0.896-0.125-1.505-0.095c-0.588,0.028-1.319,0.157-1.826,0.461
							c0.31-0.136,0.625-0.235,0.961-0.282c0.584-0.081,1.098-0.019,1.669,0.131c0.525,0.138,0.962,0.358,1.656,0.482v-0.463
							C672.952,104.87,672.518,104.77,672.265,104.729z"/>
						<path style="fill:#0099D1;" d="M672.79,103.711c-0.383-0.061-0.739-0.137-1.231-0.181c0.121,0.012,0.515,0.139,0.665,0.181
							c0.351,0.097,0.628,0.233,0.996,0.354v-0.291C673.098,103.746,672.927,103.732,672.79,103.711z"/>
						<path style="fill:#027CB7;" d="M670.786,103.607c-0.521,0.026-1.025,0.155-1.502,0.367c-0.409,0.183-0.799,0.403-1.222,0.552
							c-0.435,0.153-0.883,0.225-1.338,0.278c0.05,0.007,0.681,0.104,1.406-0.035c0.416-0.08,0.861-0.195,1.268-0.312
							c0.441-0.126,0.868-0.215,1.329-0.183c0.428,0.03,0.832,0.117,1.242,0.234c0.401,0.115,0.712,0.18,1.25,0.275v-0.507
							c-0.352-0.108-0.8-0.306-1.177-0.448C671.62,103.669,671.238,103.584,670.786,103.607z"/>
						<path style="fill:#0099D1;" d="M671.839,105.178c-0.491-0.13-0.988-0.226-1.501-0.223c-0.519,0.003-1.013,0.139-1.485,0.344
							c-0.425,0.185-0.835,0.399-1.272,0.554c-1.013,0.358-1.973,0.269-3.001,0.054c-1.005-0.21-2.126-0.011-2.42,0.071
							c1.061-0.203,1.917-0.01,2.724,0.168c0.427,0.095,0.981,0.318,2.263,0.315c0.422-0.001,0.926-0.139,1.558-0.365
							c0.367-0.131,1.039-0.47,2.073-0.61c0.543-0.074,1.138,0.024,1.668,0.088c0.035,0.004,0.54,0.09,0.775,0.095v-0.104
							C672.763,105.467,672.298,105.299,671.839,105.178z"/>
						<path style="fill:#00BFE8;" d="M669.174,104.652c-1,0.323-1.807,0.374-2.359,0.347c-0.361-0.018-0.723-0.13-1.063-0.246
							c-0.38-0.129-0.738-0.307-1.127-0.411c-0.234-0.063-0.478-0.098-0.722-0.087c-0.471,0.021-0.92,0.192-1.321,0.434
							c-0.213,0.128-0.412,0.276-0.61,0.426c0.342-0.187,0.678-0.365,1.072-0.4c0.363-0.033,0.751,0,1.108,0.078
							c0.157,0.034,0.311,0.085,0.464,0.137l0.367,0.161c1.153,0.562,2.002,0.605,2.785,0.331c0.452-0.159,0.887-0.363,1.332-0.541
							c0.458-0.184,0.941-0.345,1.431-0.39c0.468-0.043,0.914,0.063,1.382,0.107C671.424,104.5,670.461,104.236,669.174,104.652z"/>
						<path style="fill:#027CB7;" d="M666.242,103.715c-0.677-0.17-1.159-0.145-1.159-0.145s0.873,0.46,1.233,0.578
							c0.339,0.11,0.688,0.174,1.046,0.169c0.34-0.004,0.676-0.067,1.004-0.156c0.327-0.088,0.649-0.201,0.971-0.311
							c0,0-0.82,0.263-1.464,0.263C667.246,104.113,666.848,103.867,666.242,103.715z"/>
						<path style="fill:#0099D1;" d="M665.793,104.13c-0.397-0.209-0.833-0.408-1.28-0.473c-0.533-0.077-1.07-0.049-1.579,0.141
							c-0.43,0.161-0.82,0.407-1.262,0.543c-0.389,0.121-0.79,0.199-1.181,0.313c0.75-0.091,0.964-0.136,1.444-0.24
							c0.502-0.109,0.854-0.209,1.594-0.271c0.559-0.047,0.903-0.058,1.362,0.082c0.627,0.191,1.193,0.373,1.68,0.394
							c0.482,0.021,0.865-0.066,1.337-0.171C667.908,104.448,666.785,104.651,665.793,104.13z"/>
						<path style="fill:#0099D1;" d="M660.7,104.367c0.615-0.147,1.146-0.338,1.702-0.616c-1.612,0.525-2.574,0.323-3.278,0.248
							c-0.556-0.06-1.06-0.16-1.567-0.225v0.291c0.506,0.162,1.047,0.297,1.679,0.377
							C659.871,104.524,660.323,104.458,660.7,104.367z"/>
						<path style="fill:#027CB7;" d="M662.781,106.066c0.007,0,0.012,0,0.018,0c-0.003,0-0.005,0-0.007,0
							C662.783,106.065,662.776,106.066,662.781,106.066z"/>
						<path style="fill:#027CB7;" d="M667.423,107.182c-0.356-0.077-0.703-0.19-1.05-0.303c-0.352-0.115-0.678-0.258-1.022-0.39
							c-0.411-0.158-0.82-0.263-1.257-0.327c-0.426-0.062-0.864-0.098-1.295-0.096c0.09,0.009,0.823,0.084,1.376,0.347
							c0.391,0.186,0.673,0.352,1.061,0.542c0.423,0.208,0.856,0.396,1.315,0.504c0.449,0.104,0.897,0.125,1.356,0.101
							c0.536-0.029,1.07-0.121,1.6-0.202C669.507,107.357,668.453,107.405,667.423,107.182z"/>
						<path style="fill:#027CB7;" d="M661.848,107.344c0.002,0,0.004-0.001,0.006-0.002
							C661.852,107.343,661.85,107.344,661.848,107.344C661.84,107.344,661.84,107.344,661.848,107.344z"/>
						<path style="fill:#00BFE8;" d="M665.41,107.281c-0.58-0.21-1.14-0.397-1.766-0.376c-0.624,0.021-1.203,0.25-1.791,0.438
							c0.351-0.099,0.841-0.173,1.205-0.148c0.568,0.04,1.123,0.182,1.755,0.334c0.685,0.165,1.377,0.218,2.077,0.14l-0.623-0.097
							C665.968,107.503,665.697,107.386,665.41,107.281z"/>
						<path style="fill:#027CB7;" d="M666.534,105.687c-0.594-0.04-1.101-0.283-1.644-0.498c-0.562-0.222-1.132-0.422-1.744-0.33
							c-0.973,0.146-1.538,0.722-2.012,1.107c-1.006,0.818-1.129,0.878-1.943,1.1c1.153-0.153,1.542-0.539,2.062-0.777
							c0.614-0.282,1.222-0.601,1.901-0.688c0.456-0.059,0.936-0.02,1.391,0.044c0.412,0.058,0.808,0.196,1.219,0.255
							c1.504,0.215,2.623-0.573,2.623-0.573C667.737,105.657,667.098,105.725,666.534,105.687z"/>
						<path style="fill:#0099D1;" d="M661.938,106.268c-0.706,0.2-1.496,0.667-2.095,0.815c-0.365,0.09-1.333,0.128-1.643,0.132
							c1.08,0.14,2.287,0.245,3.295-0.047c0.446-0.13,0.9-0.23,1.357-0.318c0.439-0.085,0.9-0.092,1.344-0.031
							c0.42,0.058,0.809,0.181,1.188,0.374c0,0-1.306-0.823-2.204-0.975C662.799,106.154,662.31,106.163,661.938,106.268z"/>
						<path style="fill:#027CB7;" d="M659.693,104.952c0.516-0.027,0.998-0.134,1.499-0.244c-0.265,0.024-0.53,0.068-0.795,0.082
							c-0.539,0.026-1.073-0.014-1.597-0.145c-0.424-0.106-0.806-0.218-1.244-0.368v0.507c0.27,0.047,0.634,0.104,0.823,0.127
							C658.897,104.972,659.171,104.979,659.693,104.952z"/>
						<path style="fill:#027CB7;" d="M661.212,104.704c-0.007,0.001-0.013,0.003-0.02,0.004c0.003,0,0.007-0.001,0.011-0.001
							C661.203,104.707,661.227,104.702,661.212,104.704z"/>
						<path style="fill:#027CB7;" d="M658.291,105.088c-0.003-0.001-0.006-0.002-0.012-0.003
							C658.283,105.086,658.287,105.087,658.291,105.088z"/>
						<path style="fill:#027CB7;" d="M659.262,105.151c-0.318,0-0.64-0.02-0.955-0.06c0.465,0.107,0.944,0.207,1.421,0.241
							c0.496,0.036,1.034,0.008,1.512-0.15c0.676-0.225,1.152-0.598,1.72-0.844c-0.474,0.108-1.418,0.422-1.994,0.583
							C660.4,105.078,659.848,105.152,659.262,105.151z"/>
						<polygon style="fill:#027CB7;" points="658.291,105.088 658.3,105.09 658.307,105.091 658.301,105.09 						"/>
						<path style="fill:#027CB7;" d="M659.878,107.536c-0.006,0-0.011,0-0.017,0c0,0-0.001,0-0.002,0c0.001,0,0.001,0,0.002,0
							C659.867,107.537,659.872,107.536,659.878,107.536z"/>
						<path style="fill:#00BFE8;" d="M659.16,107.447c-0.516-0.016-0.964-0.096-1.604-0.206v0.274
							c0.367,0.047,0.634,0.029,0.781,0.02C658.656,107.516,658.87,107.465,659.16,107.447z"/>
						<path style="fill:#0099D1;" d="M658.801,105.751c-0.17-0.015-0.791-0.089-1.244-0.179v0.1
							C658.009,105.699,658.354,105.747,658.801,105.751z"/>
						<path style="fill:#0099D1;" d="M660.294,106.386c0.645-0.366,1.71-1.4,1.71-1.4s-0.902,0.674-1.677,0.973
							c-0.574,0.222-1.238,0.339-1.956,0.34c-0.268,0-0.549-0.025-0.814-0.042v0.799c0.414,0.025,0.659,0.002,0.969-0.036
							C659.147,106.945,659.684,106.733,660.294,106.386z"/>
						<path style="fill:#00BFE8;" d="M661.361,105.276c-0.266,0.09-0.539,0.165-0.817,0.207c-0.547,0.083-1.092,0.015-1.63-0.11
							c-0.482-0.112-0.901-0.243-1.357-0.409v0.463c0.21,0.039,0.709,0.129,0.92,0.163
							C660.443,105.898,661.367,105.272,661.361,105.276z"/>
						<path style="fill:#027CB7;" d="M660.703,105.663c-0.41,0.109-1.051,0.199-1.612,0.195c-0.418-0.003-1.146-0.041-1.534-0.095
							v0.318c0.389,0.036,0.742,0.047,1.086,0.035C659.422,106.088,660.506,105.76,660.703,105.663z"/>
					</g>
				</g>
			</g>
			<path style="fill-rule:evenodd;clip-rule:evenodd;fill:#EF4130;" d="M672.6,71.116l-11.738,4.389v-3.738h2.075v0.974h0.407
				l8.018-3.429V68.95l-8.018,3.418v-0.601h0.597v-1.162h-3.079v-0.519l12.363-6.514v-1.498h3.19v5.85h-4.733v1.787h0.918V71.116
				L672.6,71.116z M684.161,55.889l-2.871,1.583v0.353l3.496-1.93v-1.457h0.918v-1.786h-14.022v1.786h0.918v1.45l-14.362,9.749
				h-3.419v1.162h0.598v0.947h0.405l1.391-0.947h0.687v3.806h-3.08v1.162h0.598v0.974h0.407l1.849-0.974h0.227v3.806h-3.08v1.162
				h0.598v1.001h0.407l2.005-0.748l-0.351,2.747l0.963,0.219l0.075-0.586l0.59,0.591l-0.119,0.12l1.046,0.238l-0.357-0.357
				l0.572-0.572l0.128,1.007l1.021,0.232l-0.497-3.89h2.038v1.001h0.407l12.136-3.671l0.047-0.365l-12.183,3.741v-0.706h0.597
				v-1.162h-2.314l11.599-4.323v-1.538h3.134l-3.868,30.252l12.405,0.002l-3.868-30.255h3.134v1.337l-2.54,0.78l0.046,0.364
				l3.119-0.943v-1.538h0.918v-1.787h-4.733v-5.85h3.19v1.419l-2.871,1.224v0.349l3.496-1.495v-1.498h0.918v-1.786h-4.733v-5.851
				h3.19V55.889L684.161,55.889z M672.28,62.441v0.358l-8.937,4.935v0.013h-0.023h-0.384v-0.947h-2.075v2.893l11.738-6.175v-1.442
				h-0.918v-1.786h4.733v-5.851h-3.19v1.457l-14.306,9.743h5.021v1.162h-0.597v0.57L672.28,62.441L672.28,62.441z M657.572,76.734
				l-1.749,0.654v-0.654H657.572L657.572,76.734z M676.096,66.932l-1.58,0.673h0.838l0.742-0.317V66.932L676.096,66.932z
				 M655.823,72.343v-0.576h1.095L655.823,72.343L655.823,72.343z M659.879,70.209l-0.084,0.044l-0.253-0.252l0.337-0.337V70.209
				L659.879,70.209z M659.59,70.361l-0.463,0.244h-0.189l0.448-0.448L659.59,70.361L659.59,70.361z M655.823,67.276v-0.477h0.702
				L655.823,67.276L655.823,67.276z M679.189,56.338h-0.975l0.487-0.487L679.189,56.338L679.189,56.338z M678.236,56.78h0.931
				l-0.465,0.465L678.236,56.78L678.236,56.78z M679.143,58.166h-0.881l0.44-0.44L679.143,58.166L679.143,58.166z M678.189,58.607
				h1.024l-0.512,0.512L678.189,58.607L678.189,58.607z M679.143,63.703h-0.882l0.441-0.441L679.143,63.703L679.143,63.703z
				 M678.216,64.145h0.972l-0.485,0.486L678.216,64.145L678.216,64.145z M679.235,65.645h-1.067l0.534-0.534L679.235,65.645
				L679.235,65.645z M678.195,66.086h1.014l-0.507,0.507L678.195,66.086L678.195,66.086z M679.743,72.809h-2.077l1.038-1.039
				L679.743,72.809L679.743,72.809z M677.731,73.251h1.955l-0.978,0.977L677.731,73.251L677.731,73.251z M680.152,76.546h-2.887
				l1.443-1.443L680.152,76.546L680.152,76.546z M677.365,76.988h2.701l-1.351,1.351L677.365,76.988L677.365,76.988z
				 M680.758,81.625h-4.084l2.042-2.042L680.758,81.625L680.758,81.625z M676.628,82.066h4.188l-2.094,2.094L676.628,82.066
				L676.628,82.066z M681.594,88.588h-5.745l2.873-2.873L681.594,88.588L681.594,88.588z M676.051,89.03h5.664l-2.832,2.698
				L676.051,89.03L676.051,89.03z M678.702,55.37l-0.673-0.672h1.345L678.702,55.37L678.702,55.37z M677.926,55.075l0.536,0.535
				l-0.536,0.536V55.075L677.926,55.075z M679.46,56.128l-0.519-0.518l0.519-0.518V56.128L679.46,56.128z M677.926,56.95
				l0.536,0.536l-0.536,0.536V56.95L677.926,56.95z M679.46,58.003l-0.519-0.518l0.519-0.518V58.003L679.46,58.003z M677.926,58.825
				l0.536,0.535l-0.536,0.536V58.825L677.926,58.825z M678.014,60.289l0.688-0.688l0.688,0.688H678.014L678.014,60.289z
				 M679.46,59.878l-0.519-0.518l0.519-0.518V59.878L679.46,59.878z M678.702,62.782l-0.707-0.707h1.414L678.702,62.782
				L678.702,62.782z M677.926,62.486l0.536,0.536l-0.536,0.535V62.486L677.926,62.486z M679.46,63.54l-0.519-0.518l0.519-0.518
				V63.54L679.46,63.54z M677.926,64.336l0.536,0.535l-0.536,0.536V64.336L677.926,64.336z M679.46,65.389l-0.519-0.518l0.519-0.518
				V65.389L679.46,65.389z M677.926,66.298l0.536,0.536l-0.536,0.536V66.298L677.926,66.298z M677.926,67.85l0.776-0.776
				l0.758,0.758v0.093h-1.534V67.85L677.926,67.85z M679.46,67.352l-0.519-0.518l0.519-0.518V67.352L679.46,67.352z M678.704,71.156
				l-0.894-0.893l0.07-0.551h1.624l0.073,0.571L678.704,71.156L678.704,71.156z M677.741,70.807l0.656,0.656l-0.849,0.849
				L677.741,70.807L677.741,70.807z M679.834,72.286l-0.822-0.823l0.636-0.636L679.834,72.286L679.834,72.286z M677.364,73.758
				l0.907,0.907l-1.174,1.174L677.364,73.758L677.364,73.758z M680.283,75.802l-1.137-1.137l0.879-0.879L680.283,75.802
				L680.283,75.802z M676.856,77.724l1.237,1.237l-1.6,1.6L676.856,77.724L676.856,77.724z M680.885,80.508l-1.547-1.547
				l1.196-1.196L680.885,80.508L680.885,80.508z M676.162,83.156l1.781,1.781l-2.303,2.304L676.162,83.156L676.162,83.156z
				 M681.737,87.176l-2.238-2.238l1.731-1.731L681.737,87.176L681.737,87.176z M675.266,90.173l2.624,2.501l-3.353,3.194
				L675.266,90.173L675.266,90.173z M674.262,98.022l4.621-4.402l4.188,3.991l0.157,1.226h-9.07L674.262,98.022L674.262,98.022z
				 M682.796,95.457l-2.921-2.783l2.287-2.179L682.796,95.457L682.796,95.457z M659.702,68.035h-0.634l0.317-0.317L659.702,68.035
				L659.702,68.035z M659.083,68.323h0.605l-0.303,0.302L659.083,68.323L659.083,68.323z M659.672,69.224H659.1l0.286-0.287
				L659.672,69.224L659.672,69.224z M659.053,69.512h0.666l-0.333,0.333L659.053,69.512L659.053,69.512z M659.672,72.826h-0.573
				l0.287-0.287L659.672,72.826L659.672,72.826z M659.069,73.114h0.633l-0.316,0.316L659.069,73.114L659.069,73.114z
				 M659.732,74.089h-0.693l0.347-0.347L659.732,74.089L659.732,74.089z M659.056,74.376h0.659l-0.329,0.33L659.056,74.376
				L659.056,74.376z M660.063,78.75h-1.351l0.676-0.675L660.063,78.75L660.063,78.75z M658.755,79.037h1.271l-0.636,0.636
				L658.755,79.037L658.755,79.037z M659.386,67.406l-0.438-0.438h0.875L659.386,67.406L659.386,67.406z M658.881,67.213
				l0.349,0.349l-0.349,0.348V67.213L658.881,67.213z M659.879,67.898l-0.337-0.336l0.337-0.337V67.898L659.879,67.898z
				 M658.881,68.433l0.349,0.348l-0.349,0.349V68.433L658.881,68.433z M659.879,69.118l-0.337-0.337l0.337-0.337V69.118
				L659.879,69.118z M658.881,69.653l0.349,0.348l-0.349,0.348V69.653L658.881,69.653z M659.386,72.227l-0.46-0.46h0.92
				L659.386,72.227L659.386,72.227z M658.881,72.035l0.349,0.348l-0.349,0.349V72.035L658.881,72.035z M659.879,72.72l-0.337-0.337
				l0.337-0.337V72.72L659.879,72.72z M658.881,73.238l0.349,0.349l-0.349,0.348V73.238L658.881,73.238z M659.879,73.923
				l-0.337-0.337l0.337-0.337V73.923L659.879,73.923z M658.881,74.515l0.349,0.348l-0.349,0.349V74.515L658.881,74.515z
				 M658.881,75.523l0.505-0.504l0.493,0.493v0.061h-0.998V75.523L658.881,75.523z M659.879,75.2l-0.337-0.337l0.337-0.337V75.2
				L659.879,75.2z M659.388,77.674l-0.582-0.581l0.046-0.359h1.057l0.047,0.372L659.388,77.674L659.388,77.674z M658.761,77.448
				l0.427,0.426l-0.552,0.552L658.761,77.448L658.761,77.448z M660.122,78.409l-0.535-0.535l0.414-0.414L660.122,78.409z"/>
			<path style="fill-rule:evenodd;clip-rule:evenodd;fill:#EF4130;" d="M671.462,106.046h-29.185c-0.075,0-0.135-0.06-0.135-0.135
				v-0.328c0-0.074,0.06-0.135,0.135-0.135h29.185c0.075,0,0.135,0.061,0.135,0.135v0.328
				C671.597,105.986,671.537,106.046,671.462,106.046z"/>
			<rect x="657.893" y="103.495" style="fill-rule:evenodd;clip-rule:evenodd;fill:#EF4130;" width="0.777" height="2.108"/>
			<rect x="662.75" y="103.495" style="fill-rule:evenodd;clip-rule:evenodd;fill:#EF4130;" width="0.776" height="2.108"/>
			<rect x="667.219" y="103.495" style="fill-rule:evenodd;clip-rule:evenodd;fill:#EF4130;" width="0.777" height="2.108"/>
			<path style="fill:#EF4130;" d="M671.148,92.854h-3.033v-9.68c0-0.208-0.136-0.389-0.332-0.443l-10.748-2.958
				c-0.134-0.036-0.276-0.008-0.388,0.078c-0.11,0.085-0.176,0.218-0.178,0.36l-0.221,19.915c-0.002,0.123,0.045,0.24,0.13,0.328
				c0.084,0.087,0.198,0.136,0.318,0.136h10.97c0.248,0,0.448-0.205,0.448-0.458V93.77h2.584v6.64c0,0.253,0.201,0.458,0.449,0.458
				s0.448-0.205,0.448-0.458v-7.098C671.597,93.058,671.396,92.854,671.148,92.854z M667.219,99.671h-10.067l0.208-18.86
				l9.859,2.714V99.671z"/>
			<g>
				<g>
					<path style="fill:#EF4130;" d="M626.537,102.889c0,0.191,0.156,0.348,0.348,0.348h1.393c0.191,0,0.348-0.156,0.348-0.348V92.1
						h1.044c0.191,0,0.349-0.157,0.349-0.348c0-0.192-0.157-0.348-0.349-0.348h-1.392c-0.192,0-0.349,0.156-0.349,0.348v10.789
						h-1.044C626.693,102.541,626.537,102.697,626.537,102.889z"/>
					<path style="fill:#EF4130;" d="M629.321,102.889c0,0.191,0.156,0.348,0.348,0.348h1.393c0.191,0,0.348-0.156,0.348-0.348V92.1
						h1.044c0.191,0,0.349-0.157,0.349-0.348c0-0.192-0.157-0.348-0.349-0.348h-1.392c-0.192,0-0.349,0.156-0.349,0.348v10.789
						h-1.044C629.478,102.541,629.321,102.697,629.321,102.889z"/>
					<path style="fill:#EF4130;" d="M632.105,102.889c0,0.191,0.156,0.348,0.348,0.348h1.393c0.191,0,0.348-0.156,0.348-0.348V92.1
						h1.044c0.192,0,0.349-0.157,0.349-0.348c0-0.192-0.156-0.348-0.349-0.348h-1.392c-0.191,0-0.349,0.156-0.349,0.348v10.789
						h-1.044C632.262,102.541,632.105,102.697,632.105,102.889z"/>
					<path style="fill:#EF4130;" d="M612.615,102.889c0,0.191,0.156,0.348,0.349,0.348h1.392c0.191,0,0.348-0.156,0.348-0.348V92.1
						h1.045c0.191,0,0.348-0.157,0.348-0.348c0-0.192-0.156-0.348-0.348-0.348h-1.393c-0.191,0-0.348,0.156-0.348,0.348v10.789
						h-1.044C612.771,102.541,612.615,102.697,612.615,102.889z"/>
					<path style="fill:#EF4130;" d="M633.895,90.011h-22.372h-1.434h-1.302c-0.191,0-0.348,0.156-0.348,0.348v13.921
						c0,0.191,0.156,0.348,0.348,0.348h27.843c0.191,0,0.348-0.157,0.348-0.348V90.359c0-0.192-0.156-0.348-0.348-0.348h-1.302
						H633.895z M636.281,103.933h-27.146V90.708h27.146V103.933z"/>
					<path style="fill:#EF4130;" d="M610.18,103.236h1.392c0.191,0,0.348-0.156,0.348-0.348V92.1h1.045
						c0.191,0,0.348-0.157,0.348-0.348c0-0.192-0.156-0.348-0.348-0.348h-1.393c-0.191,0-0.348,0.156-0.348,0.348v10.789h-1.044
						c-0.192,0-0.349,0.156-0.349,0.348C609.831,103.08,609.987,103.236,610.18,103.236z"/>
					<path style="fill:#EF4130;" d="M615.399,102.889c0,0.191,0.156,0.348,0.349,0.348h1.392c0.192,0,0.349-0.156,0.349-0.348V92.1
						h1.044c0.191,0,0.348-0.157,0.348-0.348c0-0.192-0.156-0.348-0.348-0.348h-1.393c-0.191,0-0.348,0.156-0.348,0.348v10.789
						h-1.044C615.556,102.541,615.399,102.697,615.399,102.889z"/>
					<g>
						<path style="fill:#EF4130;" d="M627.106,95.767h-0.371v-0.644c0-0.171-0.13-0.312-0.288-0.312h-3.097l-0.092,0.275h2.938
							c0.08,0,0.145,0.064,0.145,0.144v3.667c0,0.08-0.064,0.144-0.145,0.144h-3.102l-0.167,0.229h3.519
							c0.158,0,0.288-0.141,0.288-0.312v-0.644h0.371c0.158,0,0.288-0.141,0.288-0.312v-1.925
							C627.395,95.907,627.265,95.767,627.106,95.767z"/>
						<path style="fill:#EF4130;" d="M618.469,99.042c-0.08,0-0.145-0.064-0.145-0.144V95.23c0-0.08,0.064-0.144,0.145-0.144h2.988
							l0.189-0.275h-3.336c-0.159,0-0.289,0.141-0.289,0.312v3.836c0,0.171,0.13,0.312,0.289,0.312h2.964l0.093-0.229H618.469z"/>
						<g>
							<polygon style="fill:#EF4130;" points="622.464,96.115 623.588,92.749 620.717,96.913 622.695,96.913 620.896,101.333 
								624.7,96.115 							"/>
						</g>
						<path style="fill:#EF4130;" d="M619.203,98.92h-0.521c-0.131,0-0.237-0.106-0.237-0.237v-3.202
							c0-0.131,0.106-0.237,0.237-0.237h0.521c0.131,0,0.237,0.106,0.237,0.237v3.202C619.44,98.814,619.334,98.92,619.203,98.92z"
							/>
						<path style="fill:#EF4130;" d="M620.277,98.92h-0.521c-0.131,0-0.237-0.106-0.237-0.237v-3.202
							c0-0.131,0.106-0.237,0.237-0.237h0.521c0.131,0,0.237,0.106,0.237,0.237v3.202C620.515,98.814,620.408,98.92,620.277,98.92z"
							/>
					</g>
				</g>
			</g>
			<g>
				<polygon style="fill:#EF4130;" points="639.744,104.438 638.862,104.438 638.862,97.585 636.609,97.585 636.609,96.704 
					639.744,96.704 				"/>
			</g>
			<path style="fill:#027CB7;" d="M655.129,103.607c-0.522,0.026-1.025,0.155-1.502,0.367c-0.409,0.183-0.799,0.403-1.223,0.552
				c-0.434,0.153-0.882,0.225-1.337,0.278c0.05,0.007,0.68,0.104,1.405-0.035c0.417-0.08,0.862-0.195,1.269-0.312
				c0.441-0.126,0.868-0.215,1.329-0.183c0.427,0.03,0.831,0.117,1.241,0.234c0.401,0.115,0.712,0.18,1.25,0.275v-0.507
				c-0.352-0.108-0.8-0.306-1.177-0.448C655.963,103.669,655.58,103.584,655.129,103.607z"/>
			<path style="fill:#027CB7;" d="M650.585,103.715c-0.678-0.17-1.159-0.145-1.159-0.145s0.873,0.46,1.232,0.578
				c0.34,0.11,0.688,0.174,1.046,0.169c0.341-0.004,0.676-0.067,1.004-0.156c0.328-0.088,0.649-0.201,0.971-0.311
				c0,0-0.82,0.263-1.464,0.263C651.588,104.113,651.189,103.867,650.585,103.715z"/>
			<path style="fill:#0099D1;" d="M650.136,104.13c-0.398-0.209-0.834-0.408-1.28-0.473c-0.534-0.077-1.071-0.049-1.579,0.141
				c-0.431,0.161-0.821,0.407-1.262,0.543c-0.39,0.121-0.79,0.199-1.181,0.313c0.749-0.091,0.964-0.136,1.443-0.24
				c0.502-0.109,0.854-0.209,1.594-0.271c0.56-0.047,0.903-0.058,1.362,0.082c0.627,0.191,1.194,0.373,1.68,0.394
				c0.483,0.021,0.865-0.066,1.337-0.171C652.25,104.448,651.127,104.651,650.136,104.13z"/>
		</g>
	</g>
	<g>
		<g>
			<path style="fill:#EF4130;" d="M51.081,228.974c-5.413,0-9.389-4.185-9.389-9.703c0-5.597,3.976-9.311,9.389-9.311h10.488v4.08
				H51.081c-3.06,0-5.309,2.275-5.309,5.439c0,3.139,2.223,5.414,5.309,5.414h10.488v4.08H51.081z"/>
			<path style="fill:#EF4130;" d="M72.837,228.974c-5.413,0-9.389-4.185-9.389-9.703c0-5.597,3.976-9.311,9.389-9.311h4.708
				c5.597,0,9.468,3.792,9.468,9.311s-3.976,9.703-9.468,9.703H72.837z M77.545,224.894c3.165,0,5.388-2.275,5.388-5.414
				c0-3.164-2.223-5.439-5.388-5.439h-4.708c-3.06,0-5.309,2.275-5.309,5.439c0,3.139,2.223,5.414,5.309,5.414H77.545z"/>
			<path style="fill:#EF4130;" d="M111.802,228.974l-3.112-12.005l-5.073,10.75c-0.471,0.967-1.072,1.517-2.066,1.517
				c-0.968,0-1.621-0.55-2.066-1.517l-5.047-10.75l-3.087,12.005h-4.001l4.655-17.602c0.287-1.099,0.941-1.647,1.987-1.647
				c0.837,0,1.622,0.497,2.04,1.36l5.649,12.083l5.649-12.083c0.392-0.863,1.072-1.36,1.936-1.36c0.993,0,1.647,0.549,1.935,1.647
				l4.63,17.602H111.802z"/>
			<path style="fill:#EF4130;" d="M141.193,228.974l-3.112-12.005l-5.073,10.75c-0.471,0.967-1.072,1.517-2.066,1.517
				c-0.968,0-1.621-0.55-2.066-1.517l-5.047-10.75l-3.087,12.005h-4.001l4.655-17.602c0.288-1.099,0.941-1.647,1.987-1.647
				c0.837,0,1.622,0.497,2.04,1.36l5.649,12.083l5.649-12.083c0.392-0.863,1.072-1.36,1.936-1.36c0.993,0,1.647,0.549,1.935,1.647
				l4.63,17.602H141.193z"/>
			<path style="fill:#EF4130;" d="M147.151,228.974V209.96h17.262v4.08h-13.208v10.854h13.234v4.08H147.151z M153.586,220.918
				v-3.217h10.095v3.217H153.586z"/>
			<path style="fill:#EF4130;" d="M183.998,228.974l-4.629-5.179h-5.91v-3.479h7.375c1.987,0,3.086-1.177,3.086-3.19
				s-1.15-3.086-3.086-3.086h-9.756v14.934h-4.054V209.96h13.81c4.446,0,7.088,2.746,7.088,7.062c0,3.112-1.465,5.283-3.845,6.225
				l5.701,5.728H183.998z"/>
			<path style="fill:#EF4130;" d="M199.607,228.974c-5.413,0-9.389-4.185-9.389-9.703c0-5.597,3.976-9.311,9.389-9.311h10.488v4.08
				h-10.488c-3.06,0-5.309,2.275-5.309,5.439c0,3.139,2.223,5.414,5.309,5.414h10.488v4.08H199.607z"/>
			<path style="fill:#EF4130;" d="M212.707,228.974V209.96h4.08v19.014H212.707z"/>
			<path style="fill:#EF4130;" d="M239.355,228.974l-2.667-4.498h-8.029l1.856-3.165h4.289l-3.478-5.858l-7.978,13.521h-4.629
				l10.802-17.968c0.471-0.784,1.072-1.308,1.961-1.308c0.89,0,1.491,0.523,1.962,1.308l10.802,17.968H239.355z"/>
			<path style="fill:#EF4130;" d="M246.021,228.974V209.96h4.08v14.934h12.292v4.08H246.021z"/>
			<path style="fill:#EF4130;" d="M264.691,228.974V209.96h4.08v19.014H264.691z"/>
			<path style="fill:#EF4130;" d="M271.986,228.974v-4.08h14.358c1.465,0,2.302-0.759,2.302-1.961c0-1.282-0.837-2.015-2.302-2.015
				h-8.604c-3.74,0-6.041-2.249-6.041-5.466c0-3.139,2.145-5.492,6.094-5.492h13.757v4.08h-13.757c-1.151,0-1.857,0.653-1.857,1.831
				c0,1.177,0.732,1.83,1.857,1.83h8.552c4.002,0,6.146,1.778,6.146,5.571c0,3.269-2.014,5.701-6.146,5.701H271.986z"/>
			<path style="fill:#EF4130;" d="M295.26,228.974V209.96h4.08v19.014H295.26z"/>
			<path style="fill:#EF4130;" d="M306.348,216.315v12.658h-3.871v-16.843c0-1.491,0.784-2.406,2.04-2.406
				c0.602,0,1.072,0.209,1.647,0.759l12.449,11.952v-12.658h3.896v17.025c0,1.517-0.837,2.433-2.04,2.433
				c-0.627,0-1.124-0.235-1.674-0.785L306.348,216.315z"/>
			<path style="fill:#EF4130;" d="M334.301,228.974c-5.413,0-9.389-4.185-9.389-9.703c0-5.597,3.976-9.311,9.389-9.311h10.488v4.08
				h-10.488c-3.06,0-5.309,2.275-5.309,5.439c0,3.139,2.223,5.414,5.309,5.414h7.585v-3.976h-8.029v-3.217h12.109v11.272H334.301z"
				/>
			<path style="fill:#EF4130;" d="M365.418,228.974c-5.413,0-9.389-4.185-9.389-9.703c0-5.597,3.976-9.311,9.389-9.311h10.488v4.08
				h-10.488c-3.06,0-5.309,2.275-5.309,5.439c0,3.139,2.223,5.414,5.309,5.414h10.488v4.08H365.418z"/>
			<path style="fill:#EF4130;" d="M378.334,228.974V209.96h4.08v14.934h12.292v4.08H378.334z"/>
			<path style="fill:#EF4130;" d="M396.821,228.974V209.96h17.262v4.08h-13.208v10.854h13.234v4.08H396.821z M403.256,220.918
				v-3.217h10.095v3.217H403.256z"/>
			<path style="fill:#EF4130;" d="M436.048,228.974l-2.667-4.498h-8.029l1.856-3.165h4.29l-3.479-5.858l-7.978,13.521h-4.629
				l10.802-17.968c0.471-0.784,1.072-1.308,1.961-1.308c0.89,0,1.491,0.523,1.962,1.308l10.802,17.968H436.048z"/>
			<path style="fill:#EF4130;" d="M446.506,216.315v12.658h-3.871v-16.843c0-1.491,0.784-2.406,2.04-2.406
				c0.602,0,1.072,0.209,1.647,0.759l12.449,11.952v-12.658h3.896v17.025c0,1.517-0.837,2.433-2.04,2.433
				c-0.627,0-1.124-0.235-1.674-0.785L446.506,216.315z"/>
			<path style="fill:#EF4130;" d="M473.438,228.974V209.96h17.262v4.08h-13.208v10.854h13.234v4.08H473.438z M479.871,220.918
				v-3.217h10.096v3.217H479.871z"/>
			<path style="fill:#EF4130;" d="M497.104,216.315v12.658h-3.871v-16.843c0-1.491,0.784-2.406,2.04-2.406
				c0.602,0,1.072,0.209,1.647,0.759l12.449,11.952v-12.658h3.896v17.025c0,1.517-0.837,2.433-2.04,2.433
				c-0.627,0-1.124-0.235-1.674-0.785L497.104,216.315z"/>
			<path style="fill:#EF4130;" d="M516.217,228.974V209.96h17.262v4.08h-13.208v10.854h13.234v4.08H516.217z M522.65,220.918v-3.217
				h10.096v3.217H522.65z"/>
			<path style="fill:#EF4130;" d="M553.063,228.974l-4.629-5.179h-5.911v-3.479h7.376c1.987,0,3.086-1.177,3.086-3.19
				s-1.15-3.086-3.086-3.086h-9.756v14.934h-4.054V209.96h13.81c4.446,0,7.088,2.746,7.088,7.062c0,3.112-1.465,5.283-3.845,6.225
				l5.701,5.728H553.063z"/>
			<path style="fill:#EF4130;" d="M568.673,228.974c-5.413,0-9.389-4.185-9.389-9.703c0-5.597,3.976-9.311,9.389-9.311h10.488v4.08
				h-10.488c-3.06,0-5.309,2.275-5.309,5.439c0,3.139,2.223,5.414,5.309,5.414h7.585v-3.976h-8.029v-3.217h12.109v11.272H568.673z"
				/>
			<path style="fill:#EF4130;" d="M591.736,228.974v-6.904l-9.912-12.109h5.467l6.643,8.396l6.643-8.396h5.179l-9.938,12.109v6.904
				H591.736z"/>
			<path style="fill:#EF4130;" d="M621.153,228.974V214.04h-6.982v-4.08h18.046v4.08h-6.983v14.934H621.153z"/>
			<path style="fill:#EF4130;" d="M634.148,228.974V209.96h17.262v4.08h-13.208v10.854h13.234v4.08H634.148z M640.582,220.918
				v-3.217h10.096v3.217H640.582z"/>
			<path style="fill:#EF4130;" d="M662.861,228.974c-5.413,0-9.389-4.185-9.389-9.703c0-5.597,3.976-9.311,9.389-9.311h10.488v4.08
				h-10.488c-3.06,0-5.309,2.275-5.309,5.439c0,3.139,2.223,5.414,5.309,5.414h10.488v4.08H662.861z"/>
			<path style="fill:#EF4130;" d="M675.777,229.026V209.96h4.08v19.066H675.777z M690.633,229.026v-7.951h-8.422v-3.505h8.422v-7.61
				h4.08v19.066H690.633z"/>
			<path style="fill:#EF4130;" d="M701.535,216.315v12.658h-3.871v-16.843c0-1.491,0.784-2.406,2.04-2.406
				c0.602,0,1.072,0.209,1.647,0.759l12.449,11.952v-12.658h3.896v17.025c0,1.517-0.837,2.433-2.04,2.433
				c-0.627,0-1.124-0.235-1.674-0.785L701.535,216.315z"/>
			<path style="fill:#EF4130;" d="M729.488,228.974c-5.413,0-9.389-4.185-9.389-9.703c0-5.597,3.976-9.311,9.389-9.311h4.708
				c5.597,0,9.468,3.792,9.468,9.311s-3.976,9.703-9.468,9.703H729.488z M734.196,224.894c3.165,0,5.388-2.275,5.388-5.414
				c0-3.164-2.223-5.439-5.388-5.439h-4.708c-3.06,0-5.309,2.275-5.309,5.439c0,3.139,2.223,5.414,5.309,5.414H734.196z"/>
			<path style="fill:#EF4130;" d="M746.091,228.974V209.96h4.08v14.934h12.292v4.08H746.091z"/>
			<path style="fill:#EF4130;" d="M773.418,228.974c-5.413,0-9.389-4.185-9.389-9.703c0-5.597,3.976-9.311,9.389-9.311h4.708
				c5.597,0,9.468,3.792,9.468,9.311s-3.976,9.703-9.468,9.703H773.418z M778.126,224.894c3.165,0,5.388-2.275,5.388-5.414
				c0-3.164-2.223-5.439-5.388-5.439h-4.708c-3.06,0-5.309,2.275-5.309,5.439c0,3.139,2.223,5.414,5.309,5.414H778.126z"/>
			<path style="fill:#EF4130;" d="M798.86,228.974c-5.413,0-9.389-4.185-9.389-9.703c0-5.597,3.976-9.311,9.389-9.311h10.488v4.08
				H798.86c-3.06,0-5.309,2.275-5.309,5.439c0,3.139,2.223,5.414,5.309,5.414h7.585v-3.976h-8.029v-3.217h12.109v11.272H798.86z"/>
			<path style="fill:#EF4130;" d="M813.503,228.974V209.96h4.08v19.014H813.503z"/>
			<path style="fill:#EF4130;" d="M820.798,228.974V209.96h17.262v4.08h-13.208v10.854h13.234v4.08H820.798z M827.232,220.918
				v-3.217h10.095v3.217H827.232z"/>
			<path style="fill:#EF4130;" d="M840.671,228.974v-4.08h14.358c1.465,0,2.302-0.759,2.302-1.961c0-1.282-0.837-2.015-2.302-2.015
				h-8.604c-3.74,0-6.041-2.249-6.041-5.466c0-3.139,2.145-5.492,6.094-5.492h13.757v4.08h-13.757c-1.151,0-1.857,0.653-1.857,1.831
				c0,1.177,0.732,1.83,1.857,1.83h8.552c4.002,0,6.146,1.778,6.146,5.571c0,3.269-2.014,5.701-6.146,5.701H840.671z"/>
		</g>
	</g>
</g>
</svg>
